<?xml version="1.0" encoding="UTF-8" standalone="no"?>
<!-- Created with Inkscape (http://www.inkscape.org/) -->

<svg
   width="210mm"
   height="297mm"
   viewBox="0 0 210 297"
   version="1.1"
   id="svg1"
   xmlns="http://www.w3.org/2000/svg"
   xmlns:svg="http://www.w3.org/2000/svg">
  <defs
     id="defs1" />
  <g
     id="layer1">
    <path
       d="m 88.588468,114.0357 a 4.4689362,4.4689362 0 0 0 -3.308859,1.41093 4.4689362,4.4689362 0 0 0 -7.287239,1.16874 4.4689362,4.4689362 0 0 0 -6.570292,3.36342 4.4689362,4.4689362 0 0 0 -5.209324,5.2292 4.4689362,4.4689362 0 0 0 -3.338433,6.58305 4.4689362,4.4689362 0 0 0 -1.140687,7.29234 4.4689362,4.4689362 0 0 0 1.168731,7.28724 4.4689362,4.4689362 0 0 0 3.363422,6.57029 4.4689362,4.4689362 0 0 0 5.229208,5.20932 4.4689362,4.4689362 0 0 0 6.583043,3.33843 4.4689362,4.4689362 0 0 0 7.292337,1.1407 4.4689362,4.4689362 0 0 0 7.287239,-1.16874 4.4689362,4.4689362 0 0 0 6.570306,-3.36342 4.4689362,4.4689362 0 0 0 5.20932,-5.22921 4.4689362,4.4689362 0 0 0 3.33843,-6.58304 4.4689362,4.4689362 0 0 0 1.14067,-7.29234 4.4689362,4.4689362 0 0 0 -1.16871,-7.28724 4.4689362,4.4689362 0 0 0 -3.36342,-6.57029 4.4689362,4.4689362 0 0 0 -5.229209,-5.20933 4.4689362,4.4689362 0 0 0 -6.583054,-3.33843 4.4689362,4.4689362 0 0 0 -3.983479,-2.55162 z"
       id="path1"
       style="stroke-width:0.264583" />
  </g>
</svg>
