<?xml version="1.0" encoding="UTF-8" standalone="no"?>
<!-- Created with Inkscape (http://www.inkscape.org/) -->

<svg
   width="210mm"
   height="297mm"
   viewBox="0 0 210 297"
   version="1.1"
   id="svg1"
   xmlns="http://www.w3.org/2000/svg"
   xmlns:svg="http://www.w3.org/2000/svg">
  <defs
     id="defs1" />
  <g
     id="layer1">
    <path
       d="m 95.463696,111.5709 a 6.3941397,6.3941397 0 0 0 5.893604,1.88965 l 0.007,-0.001 a 6.3941397,6.3941397 0 0 0 1.82763,-0.67994 6.3941397,6.3941397 0 0 0 5.02103,3.61876 l 0.007,7.5e-4 a 6.3941397,6.3941397 0 0 0 1.94728,-0.0817 6.3941397,6.3941397 0 0 0 3.65814,4.99332 l 0.006,0.003 a 6.3941397,6.3941397 0 0 0 1.87795,0.52385 6.3941397,6.3941397 0 0 0 1.93487,5.87903 l 0.006,0.004 a 6.3941397,6.3941397 0 0 0 1.62404,1.07907 6.3941397,6.3941397 0 0 0 0.0243,6.1891 l 0.004,0.006 a 6.3941397,6.3941397 0 0 0 1.21112,1.52775 6.3941397,6.3941397 0 0 0 -1.88964,5.89362 v 0.007 a 6.3941397,6.3941397 0 0 0 0.67997,1.82761 6.3941397,6.3941397 0 0 0 -3.61853,5.02098 v 0.007 a 6.3941397,6.3941397 0 0 0 0.0817,1.94726 6.3941397,6.3941397 0 0 0 -4.99331,3.65817 l -0.004,0.006 a 6.3941397,6.3941397 0 0 0 -0.52386,1.87796 6.3941397,6.3941397 0 0 0 -5.87903,1.93487 l -0.004,0.006 a 6.3941397,6.3941397 0 0 0 -1.07907,1.62406 6.3941397,6.3941397 0 0 0 -6.189094,0.0242 l -0.006,0.003 a 6.3941397,6.3941397 0 0 0 -1.52779,1.21112 6.3941397,6.3941397 0 0 0 -5.8936,-1.88964 l -0.007,0.001 a 6.3941397,6.3941397 0 0 0 -1.82681,0.67984 6.3941397,6.3941397 0 0 0 -5.02103,-3.61876 l -0.007,-7.5e-4 a 6.3941397,6.3941397 0 0 0 -1.94729,0.0817 6.3941397,6.3941397 0 0 0 -3.65815,-4.99332 l -0.006,-0.003 a 6.3941397,6.3941397 0 0 0 -1.87796,-0.52384 6.3941397,6.3941397 0 0 0 -1.93487,-5.87903 l -0.006,-0.004 a 6.3941397,6.3941397 0 0 0 -1.62406,-1.07905 6.3941397,6.3941397 0 0 0 -0.0241,-6.1891 l -0.003,-0.006 a 6.3941397,6.3941397 0 0 0 -1.21112,-1.52775 6.3941397,6.3941397 0 0 0 1.88964,-5.89364 l -10e-4,-0.007 a 6.3941397,6.3941397 0 0 0 -0.67984,-1.82755 6.3941397,6.3941397 0 0 0 3.61876,-5.02105 l 7.5e-4,-0.007 a 6.3941397,6.3941397 0 0 0 -0.0817,-1.94728 6.3941397,6.3941397 0 0 0 4.9933,-3.65815 l 0.003,-0.006 a 6.3941397,6.3941397 0 0 0 0.52385,-1.87796 6.3941397,6.3941397 0 0 0 5.87902,-1.93487 l 0.004,-0.006 a 6.3941397,6.3941397 0 0 0 1.07907,-1.62407 6.3941397,6.3941397 0 0 0 6.18913,-0.0241 l 0.006,-0.003 a 6.3941397,6.3941397 0 0 0 1.52774,-1.21112 z"
       id="path21"
       style="stroke-width:0.264583" />
  </g>
</svg>
