<?xml version="1.0" encoding="UTF-8" standalone="no"?>
<!-- Created with Inkscape (http://www.inkscape.org/) -->

<svg
   width="210mm"
   height="297mm"
   viewBox="0 0 210 297"
   version="1.1"
   id="svg881"
   inkscape:version="1.2.2 (b0a8486541, 2022-12-01)"
   sodipodi:docname="A15.svg"
   xmlns:inkscape="http://www.inkscape.org/namespaces/inkscape"
   xmlns:sodipodi="http://sodipodi.sourceforge.net/DTD/sodipodi-0.dtd"
   xmlns="http://www.w3.org/2000/svg"
   xmlns:svg="http://www.w3.org/2000/svg">
  <sodipodi:namedview
     id="namedview883"
     pagecolor="#ffffff"
     bordercolor="#666666"
     borderopacity="1.0"
     inkscape:showpageshadow="2"
     inkscape:pageopacity="0.0"
     inkscape:pagecheckerboard="0"
     inkscape:deskcolor="#d1d1d1"
     inkscape:document-units="mm"
     showgrid="false"
     inkscape:zoom="0.7500982"
     inkscape:cx="397.28131"
     inkscape:cy="563.25958"
     inkscape:window-width="1920"
     inkscape:window-height="1011"
     inkscape:window-x="0"
     inkscape:window-y="32"
     inkscape:window-maximized="1"
     inkscape:current-layer="layer1" />
  <defs
     id="defs878" />
  <g
     inkscape:label="Layer 1"
     inkscape:groupmode="layer"
     id="layer1">
    <path
       d="m 82.297148,135.55016 c 1.01889,-1.57843 2.874921,-2.40479 4.729695,-2.10579 1.763667,0.30577 3.577341,-0.0797 5.064159,-1.07643 1.572808,-1.02755 3.604485,-1.02755 5.177293,0 1.486818,0.99669 3.300495,1.3822 5.064155,1.07643 1.85478,-0.299 3.71081,0.52736 4.7297,2.10579 0.95289,1.51527 2.45296,2.60513 4.18852,3.04314 1.81604,0.48125 3.17549,1.99109 3.46428,3.84749 0.2542,1.77183 1.1813,3.3776 2.58865,4.48365 1.4633,1.1783 2.09112,3.11056 1.59987,4.92393 -0.48845,1.72204 -0.29463,3.56607 0.54118,5.14892 0.85752,1.6716 0.64515,3.69214 -0.54118,5.14892 -1.14664,1.3745 -1.71961,3.13793 -1.59987,4.9239 0.10349,1.87587 -0.91235,3.63536 -2.58865,4.48368 -1.60656,0.78928 -2.84725,2.1672 -3.46428,3.84747 -0.66844,1.75579 -2.31211,2.94998 -4.18852,3.04315 -1.7887,0.0676 -3.48259,0.82176 -4.7297,2.1058 -1.3248,1.3321 -3.312079,1.7545 -5.064155,1.0764 -1.661552,-0.66578 -3.515741,-0.66578 -5.177293,0 -1.752076,0.6781 -3.739356,0.2557 -5.064159,-1.0764 -1.247109,-1.28404 -2.940995,-2.0382 -4.729695,-2.1058 -1.876414,-0.0932 -3.52008,-1.28736 -4.18852,-3.04315 -0.617027,-1.68027 -1.857722,-3.05819 -3.464285,-3.84747 -1.676297,-0.84832 -2.692138,-2.60781 -2.588649,-4.48368 0.119745,-1.78597 -0.453231,-3.5494 -1.599872,-4.9239 -1.186323,-1.45678 -1.398691,-3.47732 -0.541173,-5.14892 0.835808,-1.58285 1.029623,-3.42688 0.541173,-5.14892 -0.491247,-1.81337 0.136578,-3.74562 1.599872,-4.92393 1.407356,-1.10605 2.33445,-2.71182 2.588649,-4.48365 0.28879,-1.8564 1.648245,-3.36624 3.464285,-3.84749 1.735558,-0.43801 3.235631,-1.52787 4.18852,-3.04314 z"
       style="fill:none;stroke:#000000;stroke-width:0.264583;stroke-linecap:round"
       id="path28"
       sodipodi:nodetypes="ccccccccccccccccccccccccccccccc" />
  </g>
</svg>
