<?xml version="1.0" encoding="UTF-8" standalone="no"?>
<!-- Created with Inkscape (http://www.inkscape.org/) -->

<svg
   width="210mm"
   height="297mm"
   viewBox="0 0 210 297"
   version="1.1"
   id="svg1"
   inkscape:version="1.4.2 (1:1.4.2+202505120738+ebf0e940d0)"
   sodipodi:docname="A8.svg"
   xmlns:inkscape="http://www.inkscape.org/namespaces/inkscape"
   xmlns:sodipodi="http://sodipodi.sourceforge.net/DTD/sodipodi-0.dtd"
   xmlns="http://www.w3.org/2000/svg"
   xmlns:svg="http://www.w3.org/2000/svg">
  <sodipodi:namedview
     id="namedview1"
     pagecolor="#FFFFFF"
     bordercolor="#eeeeee"
     borderopacity="1"
     inkscape:showpageshadow="0"
     inkscape:pageopacity="0"
     inkscape:pagecheckerboard="0"
     inkscape:deskcolor="#d1d1d1"
     inkscape:document-units="mm"
     inkscape:zoom="0.3599046"
     inkscape:cx="397.32751"
     inkscape:cy="561.25984"
     inkscape:window-width="1920"
     inkscape:window-height="1016"
     inkscape:window-x="1920"
     inkscape:window-y="27"
     inkscape:window-maximized="1"
     inkscape:current-layer="layer1" />
  <defs
     id="defs1" />
  <g
     inkscape:label="Layer 1"
     inkscape:groupmode="layer"
     id="layer1">
    <path
       id="path34"
       style="fill:none;stroke:#000000;stroke-width:0.264583;stroke-linecap:round"
       d="M 124.706 135.157 C 124.422 131.605 121.601 128.783 118.048 128.5 C 118.048 128.5 118.048 128.5 118.048 128.5 C 114.822 128.327 111.753 127.056 109.35 124.897 C 109.35 124.897 109.35 124.897 109.35 124.897 C 106.637 122.585 102.647 122.585 99.9347 124.897 C 99.9347 124.897 99.9347 124.897 99.9347 124.897 C 97.5318 127.056 94.4622 128.327 91.2364 128.5 C 91.2364 128.5 91.2364 128.5 91.2364 128.5 C 87.6837 128.783 84.8626 131.605 84.5789 135.157 C 84.5789 135.157 84.5789 135.157 84.5789 135.157 C 84.4064 138.383 83.135 141.453 80.9759 143.856 C 80.9759 143.856 80.9759 143.856 80.9759 143.856 C 78.6644 146.568 78.6644 150.558 80.9759 153.271 C 80.9759 153.271 80.9759 153.271 80.9759 153.271 C 83.135 155.674 84.4064 158.743 84.5789 161.969 C 84.5789 161.969 84.5789 161.969 84.5789 161.969 C 84.8626 165.522 87.6837 168.343 91.2364 168.626 C 91.2364 168.626 91.2364 168.626 91.2364 168.626 C 94.4622 168.799 97.5318 170.07 99.9347 172.229 C 99.9347 172.229 99.9347 172.229 99.9347 172.229 C 102.647 174.541 106.637 174.541 109.35 172.229 C 109.35 172.229 109.35 172.229 109.35 172.229 C 111.753 170.07 114.822 168.799 118.048 168.626 C 118.048 168.626 118.048 168.626 118.048 168.626 C 121.601 168.343 124.422 165.522 124.706 161.969 C 124.706 161.969 124.706 161.969 124.706 161.969 C 124.878 158.743 126.15 155.674 128.309 153.271 C 128.309 153.271 128.309 153.271 128.309 153.271 C 130.62 150.558 130.62 146.568 128.309 143.856 C 128.309 143.856 128.309 143.856 128.309 143.856 C 126.15 141.453 124.878 138.383 124.706 135.157 Z" />
  </g>
</svg>
