<?xml version="1.0" encoding="UTF-8" standalone="no"?>
<!-- Created with Inkscape (http://www.inkscape.org/) -->

<svg
   width="210mm"
   height="297mm"
   viewBox="0 0 210 297"
   version="1.1"
   id="svg1"
   xmlns="http://www.w3.org/2000/svg"
   xmlns:svg="http://www.w3.org/2000/svg">
  <defs
     id="defs1" />
  <circle
     style="fill:#000000;stroke-width:2;stroke-linecap:square;paint-order:markers fill stroke"
     id="center"
     cx="105"
     cy="148.5"
     r="2.1146724" />
  <path
     style="fill:none;stroke:#000000;stroke-width:0.499999;stroke-linecap:square;paint-order:markers fill stroke"
     d="m 105.89214,99.644603 c -0.30744,1.116477 -0.6668,2.206967 -1.07132,3.274867 -0.40453,1.06789 -0.85421,2.1132 -1.34228,3.13932 -0.48806,1.02611 -1.01452,2.03304 -1.57259,3.02416 -0.55807,0.99112 -1.14776,1.96645 -1.7623,2.92937 -0.817738,0.33892 -1.589003,0.75499 -2.306389,1.23802 -0.717386,0.48303 -1.380891,1.03303 -1.983109,1.63981 -0.602218,0.60677 -1.143148,1.27033 -1.615383,1.98049 -0.472235,0.71017 -0.875774,1.46693 -1.203209,2.26011 -0.758902,-0.32442 -1.545136,-0.57587 -2.347668,-0.75205 -0.802532,-0.17619 -1.621362,-0.2771 -2.445456,-0.30045 -0.824094,-0.0233 -1.653452,0.0309 -2.47704,0.16496 -0.823588,0.13408 -1.641407,0.34803 -2.442422,0.64415 -1.089612,-0.28968 -2.167721,-0.6081 -3.230179,-0.96564 -1.062457,-0.35753 -2.109263,-0.75419 -3.136267,-1.20035 -1.027004,-0.44617 -2.034206,-0.94183 -3.017456,-1.49739 -0.983251,-0.55555 -1.94255,-1.17099 -2.873747,-1.8567 v 1.3e-4 1.3e-4 1.3e-4 1.3e-4 c 0.572147,1.00692 1.089184,2.03222 1.558303,3.07351 0.46912,1.04129 0.890322,2.09856 1.270801,3.16941 0.380479,1.07084 0.720235,2.15526 1.026461,3.25085 0.306227,1.09558 0.578924,2.20234 0.825286,3.31785 -0.338608,0.81796 -0.589785,1.6576 -0.755493,2.50649 -0.165707,0.84888 -0.245946,1.70701 -0.242679,2.56195 0.0033,0.85495 0.09004,1.7067 0.258356,2.54283 0.168316,0.83613 0.418176,1.65664 0.747616,2.44909 -0.766005,0.30723 -1.499715,0.68538 -2.191715,1.12828 -0.692,0.44291 -1.342291,0.95055 -1.941457,1.51677 -0.599167,0.56621 -1.147209,1.19099 -1.634712,1.86816 -0.487503,0.67718 -0.914468,1.40674 -1.271479,2.18251 -0.975245,0.5656 -1.962701,1.10275 -2.966762,1.60118 -1.004061,0.49843 -2.024727,0.95813 -3.066392,1.36884 -1.041665,0.4107 -2.10433,0.77241 -3.192388,1.07484 -1.088059,0.30243 -2.201511,0.54558 -3.344751,0.71919 1.116484,0.30744 2.207009,0.6668 3.274957,1.07132 1.067947,0.40452 2.113318,0.8542 3.139494,1.34226 1.026176,0.48807 2.033158,1.01452 3.024329,1.5726 0.99117,0.55807 1.966528,1.14776 2.929458,1.76231 0.338942,0.81779 0.755034,1.58911 1.238097,2.30656 0.483062,0.71745 1.033094,1.38102 1.639915,1.9833 0.606821,0.60227 1.27043,1.14325 1.980646,1.61551 0.710216,0.47227 1.467038,0.87582 2.260287,1.20324 -0.324367,0.75887 -0.575755,1.54503 -0.751874,2.34747 -0.17612,0.80245 -0.27697,1.62117 -0.300263,2.44515 -0.02329,0.82399 0.03097,1.65324 0.165086,2.47673 0.134113,0.82349 0.348074,1.64123 0.644172,2.4422 -0.289678,1.08961 -0.608127,2.16772 -0.965714,3.23018 -0.357586,1.06246 -0.75431,2.10926 -1.200538,3.13627 -0.446227,1.027 -0.941958,2.0342 -1.49756,3.01745 -0.555601,0.98325 -1.171073,1.94255 -1.856781,2.87375 v 1.3e-4 1.2e-4 1.3e-4 1.3e-4 c 1.006917,-0.57215 2.032192,-1.08918 3.073432,-1.5583 1.041241,-0.46912 2.098447,-0.89032 3.169228,-1.2708 1.070781,-0.38048 2.155136,-0.72024 3.250674,-1.02646 1.095538,-0.30623 2.202258,-0.57893 3.31777,-0.82529 0.818633,0.33889 1.65901,0.59018 2.508651,0.75585 0.849641,0.16567 1.708547,0.24572 2.564238,0.24213 0.855691,-0.004 1.708168,-0.0908 2.544952,-0.25971 0.836784,-0.16889 1.657875,-0.41944 2.450795,-0.74967 0.309678,0.75613 0.688668,1.48024 1.130976,2.16318 0.442307,0.68294 0.947933,1.32472 1.510885,1.91617 0.562952,0.59145 1.18323,1.13258 1.854841,1.61424 0.671611,0.48166 1.394555,0.90384 2.16284,1.25741 0.565602,0.97524 1.102757,1.9627 1.601177,2.96676 0.49843,1.00406 0.95813,2.02472 1.36883,3.06639 0.41071,1.04166 0.77241,2.10433 1.07484,3.19239 0.30243,1.08805 0.54559,2.20151 0.7192,3.34475 0.30743,-1.11648 0.66683,-2.20701 1.0714,-3.27495 0.40457,-1.06795 0.85431,-2.11332 1.34244,-3.1395 0.48813,-1.02617 1.01465,-2.03316 1.57277,-3.02433 0.55812,-0.99117 1.14785,-1.96652 1.76239,-2.92945 0.81265,-0.33681 1.57939,-0.7498 2.29295,-1.22897 0.71357,-0.47917 1.37397,-1.02453 1.97393,-1.6261 0.59996,-0.60156 1.13948,-1.25933 1.6113,-1.96331 0.47183,-0.70398 0.87595,-1.45419 1.20511,-2.24062 0.75699,0.32122 1.54097,0.56994 2.34103,0.74389 0.80005,0.17395 1.61617,0.27313 2.43745,0.29527 0.82127,0.0221 1.6477,-0.0327 2.46835,-0.16695 0.82066,-0.1342 1.63554,-0.3477 2.43373,-0.64277 1.08957,0.28966 2.16763,0.60809 3.23004,0.96564 1.06241,0.35755 2.10916,0.75423 3.13612,1.20041 1.02696,0.44618 2.03412,0.94186 3.01733,1.49741 0.98321,0.55555 1.94247,1.17096 2.87364,1.85662 -0.57208,-1.00686 -1.08909,-2.03209 -1.5582,-3.07329 -0.46911,-1.04121 -0.89033,-2.09839 -1.27083,-3.16914 -0.3805,-1.07075 -0.72028,-2.15507 -1.02653,-3.25057 -0.30625,-1.09549 -0.57895,-2.20216 -0.8253,-3.31759 0.33646,-0.81278 0.58663,-1.64696 0.75241,-2.49033 0.16577,-0.84338 0.24716,-1.69595 0.24608,-2.54554 -0.001,-0.84958 -0.0846,-1.69617 -0.24876,-2.52758 -0.16412,-0.8314 -0.4088,-1.64762 -0.73213,-2.43646 0.76244,-0.30813 1.49268,-0.68663 2.1814,-1.12937 0.68872,-0.44275 1.33591,-0.94975 1.93227,-1.51486 0.59636,-0.56511 1.14189,-1.18835 1.62727,-1.86357 0.48538,-0.67522 0.91061,-1.40244 1.26638,-2.17551 0.97524,-0.5656 1.9627,-1.10272 2.96676,-1.6011 1.00406,-0.49838 2.02472,-0.95802 3.06639,-1.36866 1.04166,-0.41064 2.10432,-0.77228 3.19238,-1.07466 1.08806,-0.30238 2.20151,-0.5455 3.34475,-0.71911 -1.11648,-0.30744 -2.20701,-0.66683 -3.27495,-1.0714 -1.06795,-0.40457 -2.11332,-0.85432 -3.1395,-1.34245 -1.02617,-0.48813 -2.03316,-1.01465 -3.02433,-1.57277 -0.99117,-0.55812 -1.96652,-1.14785 -2.92945,-1.76239 -0.33655,-0.81201 -0.74916,-1.57818 -1.22787,-2.29127 -0.47871,-0.7131 -1.02351,-1.3731 -1.62445,-1.97278 -0.60093,-0.59968 -1.258,-1.13903 -1.96123,-1.6108 -0.70323,-0.47177 -1.45263,-0.87597 -2.23822,-1.20534 0.33,-0.7622 0.58619,-1.55234 0.76621,-2.35919 0.18003,-0.80684 0.2839,-1.6304 0.30928,-2.45942 0.0254,-0.82902 -0.0277,-1.6635 -0.16168,-2.49221 -0.13394,-0.82871 -0.34871,-1.65165 -0.64664,-2.45757 0.28967,-1.08957 0.60809,-2.16763 0.96564,-3.23004 0.35755,-1.06241 0.75423,-2.10917 1.20041,-3.13613 0.44618,-1.02696 0.94185,-2.03411 1.4974,-3.01732 0.55555,-0.98321 1.17096,-1.94247 1.85662,-2.87364 -1.00686,0.57207 -2.03209,1.08905 -3.07329,1.55811 -1.04121,0.46906 -2.09839,0.89021 -3.16914,1.27065 -1.07075,0.38044 -2.15507,0.72016 -3.25056,1.02635 -1.09549,0.3062 -2.20216,0.57888 -3.31759,0.82522 -0.81797,-0.33861 -1.65761,-0.58979 -2.50649,-0.75549 -0.84889,-0.16571 -1.70702,-0.24594 -2.56196,-0.24266 -0.85494,0.003 -1.70669,0.0901 -2.54282,0.25841 -0.83614,0.16835 -1.65665,0.41825 -2.4491,0.74774 -0.30723,-0.76601 -0.68538,-1.49972 -1.12828,-2.19172 -0.4429,-0.692 -0.95055,-1.34229 -1.51676,-1.94145 -0.56622,-0.59917 -1.191,-1.14721 -1.86817,-1.63471 -0.67717,-0.48751 -1.40674,-0.91447 -2.18251,-1.27148 -0.5656,-0.97524 -1.10275,-1.96266 -1.60117,-2.96668 -0.49842,-1.00401 -0.95813,-2.02462 -1.36883,-3.06622 -0.4107,-1.04161 -0.7724,-2.10421 -1.07484,-3.19222 -0.30243,-1.08801 -0.54559,-2.20143 -0.7192,-3.344657 l -2e-5,-5.5e-5 -2e-5,-5.5e-5 -10e-6,-5.5e-5 z"
     id="path2" />
</svg>
