<?xml version="1.0" encoding="UTF-8" standalone="no"?>
<!-- Created with Inkscape (http://www.inkscape.org/) -->

<svg
   width="210mm"
   height="297mm"
   viewBox="0 0 210 297"
   version="1.1"
   id="svg1"
   xmlns="http://www.w3.org/2000/svg"
   xmlns:svg="http://www.w3.org/2000/svg">
  <defs
     id="defs1" />
  <g
     id="layer1">
    <circle
       style="fill:#000000;stroke-width:2;stroke-linecap:square;paint-order:markers fill stroke"
       id="center"
       cx="105"
       cy="148.5"
       r="2.1146724" />
    <path
       id="path3-7"
       style="fill:none;stroke:#000000;stroke-width:2;stroke-linecap:square;paint-order:markers fill stroke"
       d="m 99.210688,126.89413 a 11.578589,11.578589 0 0 0 -5.789311,1.55132 11.578589,11.578589 0 0 0 -5.789311,10.0273 11.578589,11.578589 0 0 0 -5.789311,10.02729 11.578589,11.578589 0 0 0 5.789311,10.0273 11.578589,11.578589 0 0 0 5.789311,10.02729 11.578589,11.578589 0 0 0 11.578623,0 11.578589,11.578589 0 0 0 11.57862,0 11.578589,11.578589 0 0 0 5.78931,-10.02729 11.578589,11.578589 0 0 0 5.78931,-10.0273 11.578589,11.578589 0 0 0 -5.78931,-10.02729 11.578589,11.578589 0 0 0 -5.78931,-10.0273 11.578589,11.578589 0 0 0 -11.57862,0 11.578589,11.578589 0 0 0 -5.789312,-1.55132 z" />
  </g>
</svg>
