<?xml version="1.0" encoding="UTF-8" standalone="no"?>
<!-- Created with Inkscape (http://www.inkscape.org/) -->

<svg
   width="210mm"
   height="297mm"
   viewBox="0 0 210 297"
   version="1.1"
   id="svg3545"
   sodipodi:docname="C16.svg"
   inkscape:version="1.2.2 (b0a8486541, 2022-12-01)"
   xmlns:inkscape="http://www.inkscape.org/namespaces/inkscape"
   xmlns:sodipodi="http://sodipodi.sourceforge.net/DTD/sodipodi-0.dtd"
   xmlns="http://www.w3.org/2000/svg"
   xmlns:svg="http://www.w3.org/2000/svg">
  <sodipodi:namedview
     id="namedview3547"
     pagecolor="#ffffff"
     bordercolor="#666666"
     borderopacity="1.0"
     inkscape:pageshadow="2"
     inkscape:pageopacity="0.0"
     inkscape:pagecheckerboard="0"
     inkscape:document-units="mm"
     showgrid="false"
     inkscape:zoom="3.6233469"
     inkscape:cx="396.59465"
     inkscape:cy="539.69439"
     inkscape:window-width="1920"
     inkscape:window-height="1011"
     inkscape:window-x="0"
     inkscape:window-y="32"
     inkscape:window-maximized="1"
     inkscape:current-layer="layer1"
     inkscape:showpageshadow="2"
     inkscape:deskcolor="#d1d1d1" />
  <defs
     id="defs3542" />
  <g
     inkscape:label="Layer 1"
     inkscape:groupmode="layer"
     id="layer1">
    <path
       id="path250"
       style="fill:none;stroke:#000000;stroke-width:0.169333;stroke-linecap:round;stroke-linejoin:round;stroke-miterlimit:10;stroke-dasharray:none;stroke-opacity:1"
       d="M 93.356 115.172 C 93.356 115.172 94.372 114.749 94.372 114.749 C 94.372 114.749 94.7953 114.622 94.7953 114.622 C 94.7953 114.622 95.2186 114.622 95.2186 114.622 C 95.2186 114.622 95.642 114.749 95.642 114.749 C 95.642 114.749 97.674 115.595 97.674 115.595 C 97.674 115.595 99.833 116.146 99.833 116.146 C 99.833 116.146 102.034 116.442 102.034 116.442 C 102.034 116.442 104.278 116.442 104.278 116.442 C 104.278 116.442 104.701 116.484 104.701 116.484 C 104.701 116.484 105.082 116.654 105.082 116.654 C 105.082 116.654 105.421 116.908 105.421 116.908 C 105.421 116.908 106.437 118.008 106.437 118.008 C 106.437 118.008 107.58 118.982 107.58 118.982 C 107.58 118.982 108.765 119.871 108.765 119.871 C 108.765 119.871 110.035 120.633 110.035 120.633 C 110.035 120.633 111.39 121.268 111.39 121.268 C 111.39 121.268 112.745 121.818 112.745 121.818 C 112.745 121.818 113.126 122.03 113.126 122.03 C 113.126 122.03 113.422 122.326 113.422 122.326 C 113.422 122.326 113.634 122.707 113.634 122.707 C 113.634 122.707 114.184 124.062 114.184 124.062 C 114.184 124.062 114.819 125.417 114.819 125.417 C 114.819 125.417 115.581 126.687 115.581 126.687 C 115.581 126.687 116.47 127.872 116.47 127.872 C 116.47 127.872 117.444 129.015 117.444 129.015 C 117.444 129.015 118.544 130.031 118.544 130.031 C 118.544 130.031 118.798 130.37 118.798 130.37 C 118.798 130.37 118.968 130.751 118.968 130.751 C 118.968 130.751 119.01 131.174 119.01 131.174 C 119.01 131.174 119.01 133.418 119.01 133.418 C 119.01 133.418 119.306 135.619 119.306 135.619 C 119.306 135.619 119.857 137.778 119.857 137.778 C 119.857 137.778 120.703 139.81 120.703 139.81 C 120.703 139.81 120.83 140.233 120.83 140.233 C 120.83 140.233 120.83 140.657 120.83 140.657 C 120.83 140.657 120.703 141.08 120.703 141.08 C 120.703 141.08 119.857 143.112 119.857 143.112 C 119.857 143.112 119.306 145.271 119.306 145.271 C 119.306 145.271 119.01 147.472 119.01 147.472 C 119.01 147.472 119.01 149.716 119.01 149.716 C 119.01 149.716 118.968 150.139 118.968 150.139 C 118.968 150.139 118.798 150.52 118.798 150.52 C 118.798 150.52 118.544 150.859 118.544 150.859 C 118.544 150.859 116.936 152.425 116.936 152.425 C 116.936 152.425 115.581 154.203 115.581 154.203 C 115.581 154.203 114.48 156.151 114.48 156.151 C 114.48 156.151 113.634 158.183 113.634 158.183 C 113.634 158.183 113.422 158.564 113.422 158.564 C 113.422 158.564 113.126 158.86 113.126 158.86 C 113.126 158.86 112.745 159.072 112.745 159.072 C 112.745 159.072 110.713 159.918 110.713 159.918 C 110.713 159.918 108.765 161.019 108.765 161.019 C 108.765 161.019 106.987 162.374 106.987 162.374 C 106.987 162.374 105.421 163.982 105.421 163.982 C 105.421 163.982 105.082 164.236 105.082 164.236 C 105.082 164.236 104.701 164.406 104.701 164.406 C 104.701 164.406 104.278 164.448 104.278 164.448 C 104.278 164.448 102.034 164.448 102.034 164.448 C 102.034 164.448 99.833 164.744 99.833 164.744 C 99.833 164.744 97.674 165.295 97.674 165.295 C 97.674 165.295 95.642 166.141 95.642 166.141 C 95.642 166.141 95.2186 166.268 95.2186 166.268 C 95.2186 166.268 94.7953 166.268 94.7953 166.268 C 94.7953 166.268 94.372 166.141 94.372 166.141 C 94.372 166.141 92.34 165.295 92.34 165.295 C 92.34 165.295 90.181 164.744 90.181 164.744 C 90.181 164.744 87.9796 164.448 87.9796 164.448 C 87.9796 164.448 85.736 164.448 85.736 164.448 C 85.736 164.448 85.3126 164.406 85.3126 164.406 C 85.3126 164.406 84.9316 164.236 84.9316 164.236 C 84.9316 164.236 84.593 163.982 84.593 163.982 C 84.593 163.982 83.0266 162.374 83.0266 162.374 C 83.0266 162.374 81.2486 161.019 81.2486 161.019 C 81.2486 161.019 79.3013 159.918 79.3013 159.918 C 79.3013 159.918 77.2693 159.072 77.2693 159.072 C 77.2693 159.072 76.8883 158.86 76.8883 158.86 C 76.8883 158.86 76.592 158.564 76.592 158.564 C 76.592 158.564 76.3803 158.183 76.3803 158.183 C 76.3803 158.183 75.5336 156.151 75.5336 156.151 C 75.5336 156.151 74.433 154.203 74.433 154.203 C 74.433 154.203 73.0783 152.425 73.0783 152.425 C 73.0783 152.425 71.4696 150.859 71.4696 150.859 C 71.4696 150.859 71.2156 150.52 71.2156 150.52 C 71.2156 150.52 71.0463 150.139 71.0463 150.139 C 71.0463 150.139 71.004 149.716 71.004 149.716 C 71.004 149.716 71.004 147.472 71.004 147.472 C 71.004 147.472 70.7076 145.271 70.7076 145.271 C 70.7076 145.271 70.1573 143.112 70.1573 143.112 C 70.1573 143.112 69.3106 141.08 69.3106 141.08 C 69.3106 141.08 69.1836 140.657 69.1836 140.657 C 69.1836 140.657 69.1836 140.233 69.1836 140.233 C 69.1836 140.233 69.3106 139.81 69.3106 139.81 C 69.3106 139.81 70.1573 137.778 70.1573 137.778 C 70.1573 137.778 70.7076 135.619 70.7076 135.619 C 70.7076 135.619 71.004 133.418 71.004 133.418 C 71.004 133.418 71.004 131.174 71.004 131.174 C 71.004 131.174 71.0463 130.751 71.0463 130.751 C 71.0463 130.751 71.2156 130.37 71.2156 130.37 C 71.2156 130.37 71.4696 130.031 71.4696 130.031 C 71.4696 130.031 73.0783 128.465 73.0783 128.465 C 73.0783 128.465 74.433 126.687 74.433 126.687 C 74.433 126.687 75.5336 124.739 75.5336 124.739 C 75.5336 124.739 76.3803 122.707 76.3803 122.707 C 76.3803 122.707 76.592 122.326 76.592 122.326 C 76.592 122.326 76.8883 122.03 76.8883 122.03 C 76.8883 122.03 77.2693 121.818 77.2693 121.818 C 77.2693 121.818 79.3013 120.972 79.3013 120.972 C 79.3013 120.972 81.2486 119.871 81.2486 119.871 C 81.2486 119.871 83.0266 118.516 83.0266 118.516 C 83.0266 118.516 84.593 116.908 84.593 116.908 C 84.593 116.908 84.9316 116.654 84.9316 116.654 C 84.9316 116.654 85.3126 116.484 85.3126 116.484 C 85.3126 116.484 85.736 116.442 85.736 116.442 C 85.736 116.442 86.8366 116.484 86.8366 116.484 C 86.8366 116.484 87.9796 116.442 87.9796 116.442 C 87.9796 116.442 89.0803 116.357 89.0803 116.357 C 89.0803 116.357 90.181 116.146 90.181 116.146 C 90.181 116.146 91.2816 115.892 91.2816 115.892 C 91.2816 115.892 92.34 115.595 92.34 115.595 C 92.34 115.595 93.356 115.172 93.356 115.172 Z" />
  </g>
</svg>
