<?xml version="1.0" encoding="UTF-8" standalone="no"?>
<!-- Created with Inkscape (http://www.inkscape.org/) -->

<svg
   width="210mm"
   height="297mm"
   viewBox="0 0 210 297"
   version="1.1"
   id="svg1"
   inkscape:version="1.4.2 (1:1.4.2+202505120738+ebf0e940d0)"
   sodipodi:docname="F4.svg"
   xmlns:inkscape="http://www.inkscape.org/namespaces/inkscape"
   xmlns:sodipodi="http://sodipodi.sourceforge.net/DTD/sodipodi-0.dtd"
   xmlns="http://www.w3.org/2000/svg"
   xmlns:svg="http://www.w3.org/2000/svg">
  <sodipodi:namedview
     id="namedview1"
     pagecolor="#FFFFFF"
     bordercolor="#eeeeee"
     borderopacity="1"
     inkscape:showpageshadow="0"
     inkscape:pageopacity="0"
     inkscape:pagecheckerboard="0"
     inkscape:deskcolor="#d1d1d1"
     inkscape:document-units="mm"
     inkscape:zoom="0.3599046"
     inkscape:cx="397.32751"
     inkscape:cy="558.48133"
     inkscape:window-width="1920"
     inkscape:window-height="1016"
     inkscape:window-x="1920"
     inkscape:window-y="27"
     inkscape:window-maximized="1"
     inkscape:current-layer="layer1" />
  <defs
     id="defs1" />
  <g
     inkscape:label="Layer 1"
     inkscape:groupmode="layer"
     id="layer1">
    <path
       id="path5"
       style="fill:none;stroke:#000000;stroke-width:0.264583;stroke-linecap:round"
       d="M 86.2603 103.258 C 88.629 100.481 92.7714 100.079 95.6302 102.348 C 98.4889 100.079 102.631 100.481 105 103.258 C 107.16 105.866 110.252 107.528 113.618 107.891 C 113.982 111.258 115.644 114.349 118.251 116.509 C 121.028 118.878 121.43 123.02 119.161 125.879 C 121.43 128.738 121.028 132.88 118.251 135.249 C 115.644 137.409 113.982 140.501 113.618 143.867 C 110.252 144.23 107.16 145.893 105 148.5 C 102.631 151.277 98.4889 151.679 95.6302 149.41 C 92.7714 151.679 88.629 151.277 86.2603 148.5 C 84.1003 145.893 81.0086 144.231 77.6423 143.867 C 77.2788 140.501 75.6166 137.409 73.0092 135.249 C 70.2324 132.88 69.8302 128.738 72.0995 125.879 C 69.8302 123.02 70.2324 118.878 73.0092 116.509 C 75.6166 114.349 77.2788 111.258 77.6423 107.891 C 81.0086 107.528 84.1003 105.866 86.2603 103.258 Z" />
  </g>
</svg>
