<?xml version="1.0" encoding="UTF-8" standalone="no"?>
<!-- Created with Inkscape (http://www.inkscape.org/) -->

<svg
   width="210mm"
   height="297mm"
   viewBox="0 0 210 297"
   version="1.1"
   id="svg1"
   xmlns="http://www.w3.org/2000/svg"
   xmlns:svg="http://www.w3.org/2000/svg">
  <defs
     id="defs1" />
  <circle
     style="fill:#000000;stroke-width:2;stroke-linecap:square;paint-order:markers fill stroke"
     id="center"
     cx="104.24008"
     cy="148.69017"
     r="2.1146724" />
  <path
     id="path1-0"
     d="M 103.97549,71.696419 91.716293,80.364624 A 46.486169,46.486169 0 0 0 85.265529,79.530567 46.486169,46.486169 0 0 0 36.903622,134.7675 l -9.657291,13.65808 0.194304,0.26459 -0.194304,0.26458 9.657807,13.6586 a 46.486169,46.486169 0 0 0 54.812675,54.40288 l 12.258677,8.66769 0.26459,-0.19431 0.26458,0.19431 12.2592,-8.66821 a 46.486169,46.486169 0 0 0 54.81267,-54.40288 l 9.6573,-13.65808 -0.19431,-0.26458 0.19431,-0.26459 -9.65782,-13.6586 A 46.486169,46.486169 0 0 0 116.76333,80.364108 l -12.25867,-8.667689 -0.26458,0.194305 z"
     style="fill:none;stroke:#000000;stroke-width:0.264583" />
</svg>
