<?xml version="1.0" encoding="UTF-8" standalone="no"?>
<!-- Created with Inkscape (http://www.inkscape.org/) -->

<svg
   width="210mm"
   height="297mm"
   viewBox="0 0 210 297"
   version="1.1"
   id="svg5"
   sodipodi:docname="F6.svg"
   inkscape:version="1.2.2 (b0a8486541, 2022-12-01)"
   xmlns:inkscape="http://www.inkscape.org/namespaces/inkscape"
   xmlns:sodipodi="http://sodipodi.sourceforge.net/DTD/sodipodi-0.dtd"
   xmlns="http://www.w3.org/2000/svg"
   xmlns:svg="http://www.w3.org/2000/svg">
  <sodipodi:namedview
     id="namedview7"
     pagecolor="#ffffff"
     bordercolor="#666666"
     borderopacity="1.0"
     inkscape:showpageshadow="2"
     inkscape:pageopacity="0.0"
     inkscape:pagecheckerboard="0"
     inkscape:deskcolor="#d1d1d1"
     inkscape:document-units="mm"
     showgrid="false"
     inkscape:zoom="3.0003928"
     inkscape:cx="396.94802"
     inkscape:cy="564.09281"
     inkscape:window-width="1920"
     inkscape:window-height="1011"
     inkscape:window-x="0"
     inkscape:window-y="32"
     inkscape:window-maximized="1"
     inkscape:current-layer="layer1" />
  <defs
     id="defs2" />
  <g
     inkscape:label="Layer 1"
     inkscape:groupmode="layer"
     id="layer1">
    <g
       id="g1993"
       transform="translate(-23.985745,-2.8218513)">
      <path
         id="path240"
         style="fill:none;stroke:#00ff00;stroke-width:0.264583;stroke-linecap:round"
         d="M 106.971 123.045 C 108.772 124.404 110.973 125.124 113.228 125.092 M 106.971 123.045 C 105.089 121.643 102.548 121.509 100.528 122.705 M 113.228 125.092 C 114.329 127.061 116.053 128.608 118.13 129.488 M 121.646 134.897 C 121.672 132.55 120.285 130.417 118.13 129.488 M 124.572 140.647 C 124.296 142.885 124.773 145.152 125.929 147.089 M 124.572 140.647 C 124.845 138.315 123.691 136.048 121.646 134.897 M 125.929 147.089 C 124.773 149.026 124.296 151.293 124.572 153.532 M 121.646 159.281 C 123.691 158.13 124.845 155.863 124.572 153.532 M 118.13 164.69 C 116.053 165.571 114.329 167.117 113.228 169.086 M 118.13 164.69 C 120.285 163.761 121.672 161.628 121.646 159.281 M 113.229 169.086 C 110.973 169.054 108.772 169.775 106.971 171.133 M 100.529 171.473 C 102.548 172.669 105.089 172.535 106.971 171.133 M 94.086 171.133 C 92.2853 169.775 90.0838 169.054 87.8285 169.086 M 94.086 171.133 C 95.9684 172.535 98.5089 172.669 100.529 171.473 M 87.8285 169.086 C 86.7283 167.117 85.0038 165.571 82.9272 164.69 M 79.4113 159.281 C 79.3854 161.628 80.7717 163.761 82.9272 164.69 M 76.4847 153.532 C 76.7607 151.293 76.2835 149.026 75.1285 147.089 M 76.4847 153.532 C 76.2117 155.863 77.3657 158.13 79.4113 159.281 M 75.1285 147.089 C 76.2835 145.152 76.7607 142.885 76.4847 140.647 M 79.4113 134.897 C 77.3657 136.048 76.2117 138.315 76.4847 140.647 M 82.9272 129.488 C 85.0038 128.608 86.7283 127.061 87.8285 125.092 M 82.9272 129.488 C 80.7717 130.417 79.3854 132.55 79.4113 134.897 M 87.8285 125.092 C 90.0838 125.124 92.2853 124.404 94.086 123.045 M 100.528 122.705 C 98.5089 121.509 95.9684 121.643 94.086 123.045" />
    </g>
  </g>
</svg>
