<?xml version="1.0" encoding="UTF-8" standalone="no"?>
<!-- Created with Inkscape (http://www.inkscape.org/) -->

<svg
   width="210mm"
   height="297mm"
   viewBox="0 0 210 297"
   version="1.1"
   id="svg5"
   sodipodi:docname="F6.svg"
   inkscape:version="1.4.2 (1:1.4.2+202505120738+ebf0e940d0)"
   xmlns:inkscape="http://www.inkscape.org/namespaces/inkscape"
   xmlns:sodipodi="http://sodipodi.sourceforge.net/DTD/sodipodi-0.dtd"
   xmlns="http://www.w3.org/2000/svg"
   xmlns:svg="http://www.w3.org/2000/svg">
  <sodipodi:namedview
     id="namedview7"
     pagecolor="#ffffff"
     bordercolor="#666666"
     borderopacity="1.0"
     inkscape:showpageshadow="2"
     inkscape:pageopacity="0.0"
     inkscape:pagecheckerboard="0"
     inkscape:deskcolor="#d1d1d1"
     inkscape:document-units="mm"
     showgrid="false"
     inkscape:zoom="3.0003928"
     inkscape:cx="317.95837"
     inkscape:cy="563.92616"
     inkscape:window-width="1920"
     inkscape:window-height="1016"
     inkscape:window-x="1920"
     inkscape:window-y="27"
     inkscape:window-maximized="1"
     inkscape:current-layer="layer1" />
  <defs
     id="defs2" />
  <g
     inkscape:label="Layer 1"
     inkscape:groupmode="layer"
     id="layer1">
    <g
       id="g1993"
       transform="translate(-23.985745,-2.8218513)">
      <path
         id="path240"
         style="fill:none;stroke:#00ff00;stroke-width:0.264583;stroke-linecap:round"
         d="M 106.971 123.045 C 108.772 124.404 110.973 125.124 113.228 125.092 C 113.228 125.092 113.228 125.092 113.228 125.092 C 114.329 127.061 116.053 128.608 118.13 129.488 C 118.13 129.488 118.13 129.488 118.13 129.488 C 120.285 130.417 121.672 132.55 121.646 134.897 C 121.646 134.897 121.646 134.897 121.646 134.897 C 123.691 136.048 124.845 138.315 124.572 140.647 C 124.572 140.647 124.572 140.647 124.572 140.647 C 124.296 142.885 124.773 145.152 125.929 147.089 C 125.929 147.089 125.929 147.089 125.929 147.089 C 124.773 149.026 124.296 151.293 124.572 153.532 C 124.572 153.532 124.572 153.532 124.572 153.532 C 124.845 155.863 123.691 158.13 121.646 159.281 C 121.646 159.281 121.646 159.281 121.646 159.281 C 121.672 161.628 120.285 163.761 118.13 164.69 C 118.13 164.69 118.13 164.69 118.13 164.69 C 116.053 165.571 114.329 167.117 113.228 169.086 C 113.228 169.086 113.229 169.086 113.229 169.086 C 110.973 169.054 108.772 169.775 106.971 171.133 C 106.971 171.133 106.971 171.133 106.971 171.133 C 105.089 172.535 102.548 172.669 100.529 171.473 C 100.529 171.473 100.529 171.473 100.529 171.473 C 98.5089 172.669 95.9684 172.535 94.086 171.133 C 94.086 171.133 94.086 171.133 94.086 171.133 C 92.2853 169.775 90.0838 169.054 87.8285 169.086 C 87.8285 169.086 87.8285 169.086 87.8285 169.086 C 86.7283 167.117 85.0038 165.571 82.9272 164.69 C 82.9272 164.69 82.9272 164.69 82.9272 164.69 C 80.7717 163.761 79.3854 161.628 79.4113 159.281 C 79.4113 159.281 79.4113 159.281 79.4113 159.281 C 77.3657 158.13 76.2117 155.863 76.4847 153.532 C 76.4847 153.532 76.4847 153.532 76.4847 153.532 C 76.7607 151.293 76.2835 149.026 75.1285 147.089 C 75.1285 147.089 75.1285 147.089 75.1285 147.089 C 76.2835 145.152 76.7607 142.885 76.4847 140.647 C 76.4847 140.647 76.4847 140.647 76.4847 140.647 C 76.2117 138.315 77.3657 136.048 79.4113 134.897 C 79.4113 134.897 79.4113 134.897 79.4113 134.897 C 79.3854 132.55 80.7717 130.417 82.9272 129.488 C 82.9272 129.488 82.9272 129.488 82.9272 129.488 C 85.0038 128.608 86.7283 127.061 87.8285 125.092 C 87.8285 125.092 87.8285 125.092 87.8285 125.092 C 90.0838 125.124 92.2853 124.404 94.086 123.045 C 94.086 123.045 94.086 123.045 94.086 123.045 C 95.9684 121.643 98.5089 121.509 100.528 122.705 C 100.528 122.705 100.528 122.705 100.528 122.705 C 102.548 121.509 105.089 121.643 106.971 123.045 Z" />
    </g>
  </g>
</svg>
