<?xml version="1.0" encoding="UTF-8" standalone="no"?>
<!-- Created with Inkscape (http://www.inkscape.org/) -->

<svg
   width="210mm"
   height="297mm"
   viewBox="0 0 210 297"
   version="1.1"
   id="svg1066"
   sodipodi:docname="F8.svg"
   inkscape:version="1.1.2 (0a00cf5339, 2022-02-04)"
   xmlns:inkscape="http://www.inkscape.org/namespaces/inkscape"
   xmlns:sodipodi="http://sodipodi.sourceforge.net/DTD/sodipodi-0.dtd"
   xmlns="http://www.w3.org/2000/svg"
   xmlns:svg="http://www.w3.org/2000/svg">
  <sodipodi:namedview
     id="namedview1068"
     pagecolor="#ffffff"
     bordercolor="#666666"
     borderopacity="1.0"
     inkscape:pageshadow="2"
     inkscape:pageopacity="0.0"
     inkscape:pagecheckerboard="0"
     inkscape:document-units="mm"
     showgrid="false"
     inkscape:zoom="2.5620932"
     inkscape:cx="396.55077"
     inkscape:cy="561.455"
     inkscape:window-width="1920"
     inkscape:window-height="1009"
     inkscape:window-x="0"
     inkscape:window-y="34"
     inkscape:window-maximized="1"
     inkscape:current-layer="layer1" />
  <defs
     id="defs1063" />
  <g
     inkscape:label="Layer 1"
     inkscape:groupmode="layer"
     id="layer1">
    <path
       id="path142"
       style="fill:none;stroke:#000000;stroke-width:0.256444;stroke-linecap:round"
       d="M 108.517 129.55 C 109.927 130.46 111.614 130.835 113.277 130.61 M 108.517 129.55 C 107.061 128.621 105.209 128.581 103.714 129.447 M 113.277 130.61 C 114.293 131.945 115.752 132.872 117.392 133.226 M 120.861 136.549 C 120.417 134.88 119.078 133.598 117.392 133.226 M 124.184 140.019 C 124.538 141.658 125.466 143.117 126.8 144.134 M 124.184 140.019 C 123.812 138.332 122.53 136.994 120.861 136.549 M 126.8 144.134 C 126.575 145.796 126.951 147.484 127.86 148.893 M 127.963 153.696 C 128.829 152.202 128.789 150.349 127.86 148.893 M 127.86 158.499 C 126.951 159.909 126.575 161.596 126.8 163.259 M 127.86 158.499 C 128.789 157.043 128.829 155.191 127.963 153.696 M 126.8 163.259 C 125.466 164.275 124.538 165.734 124.184 167.373 M 120.861 170.843 C 122.53 170.398 123.812 169.06 124.184 167.373 M 117.392 174.166 C 115.752 174.52 114.293 175.447 113.277 176.782 M 117.392 174.166 C 119.078 173.794 120.417 172.512 120.861 170.843 M 113.277 176.782 C 111.614 176.557 109.927 176.933 108.517 177.842 M 103.714 177.945 C 105.209 178.811 107.061 178.771 108.517 177.842 M 98.9113 177.842 C 97.5017 176.933 95.8138 176.557 94.1517 176.782 M 98.9113 177.842 C 100.367 178.771 102.22 178.811 103.714 177.945 M 94.1517 176.782 C 93.1355 175.447 91.6763 174.52 90.0368 174.166 M 86.5673 170.843 C 87.0117 172.512 88.3501 173.794 90.0368 174.166 M 83.2445 167.373 C 82.8905 165.734 81.9628 164.275 80.6284 163.259 M 83.2445 167.373 C 83.6165 169.06 84.8982 170.398 86.5673 170.843 M 80.6284 163.259 C 80.8534 161.596 80.4776 159.909 79.5686 158.499 M 79.4648 153.696 C 78.5989 155.191 78.6389 157.043 79.5686 158.499 M 79.5686 148.893 C 80.4776 147.484 80.8534 145.796 80.6284 144.134 M 79.5686 148.893 C 78.6389 150.349 78.5989 152.202 79.4648 153.696 M 80.6284 144.134 C 81.9628 143.117 82.8905 141.658 83.2445 140.019 M 86.5673 136.549 C 84.8982 136.994 83.6165 138.332 83.2445 140.019 M 90.0368 133.226 C 91.6763 132.872 93.1355 131.945 94.1517 130.61 M 90.0368 133.226 C 88.3501 133.598 87.0117 134.88 86.5673 136.549 M 94.1517 130.61 C 95.8138 130.835 97.5017 130.46 98.9113 129.55 M 103.714 129.447 C 102.22 128.581 100.367 128.621 98.9113 129.55" />
  </g>
</svg>
