<?xml version="1.0" encoding="UTF-8" standalone="no"?>
<!-- Created with Inkscape (http://www.inkscape.org/) -->

<svg
   width="210mm"
   height="297mm"
   viewBox="0 0 210 297"
   version="1.1"
   id="svg2226"
   sodipodi:docname="FireFlower.svg"
   inkscape:version="1.4.2 (1:1.4.2+202505120738+ebf0e940d0)"
   xmlns:inkscape="http://www.inkscape.org/namespaces/inkscape"
   xmlns:sodipodi="http://sodipodi.sourceforge.net/DTD/sodipodi-0.dtd"
   xmlns="http://www.w3.org/2000/svg"
   xmlns:svg="http://www.w3.org/2000/svg">
  <sodipodi:namedview
     id="namedview2228"
     pagecolor="#ffffff"
     bordercolor="#666666"
     borderopacity="1.0"
     inkscape:pageshadow="2"
     inkscape:pageopacity="0.0"
     inkscape:pagecheckerboard="0"
     inkscape:document-units="mm"
     showgrid="false"
     inkscape:zoom="3.6233469"
     inkscape:cx="385.27915"
     inkscape:cy="543.69622"
     inkscape:window-width="1920"
     inkscape:window-height="1016"
     inkscape:window-x="1920"
     inkscape:window-y="27"
     inkscape:window-maximized="1"
     inkscape:current-layer="layer1"
     inkscape:showpageshadow="0"
     inkscape:deskcolor="#d1d1d1" />
  <defs
     id="defs2223" />
  <g
     inkscape:label="Layer 1"
     inkscape:groupmode="layer"
     id="layer1">
    <path
       id="path182"
       style="fill:none;stroke:#000000;stroke-width:0.0679898;stroke-linecap:round"
       d="M 128.865 141.657 C 128.754 141.34 128.638 141.028 128.516 140.719 C 128.882 139.804 128.831 138.774 128.376 137.898 C 127.923 137.023 127.11 136.389 126.149 136.162 C 125.966 135.883 125.777 135.608 125.583 135.337 C 123.179 133.512 120.259 132.492 117.241 132.427 C 117.012 131.207 116.447 130.075 115.61 129.16 C 114.375 129.039 113.13 129.266 112.018 129.816 C 110.154 127.441 107.585 125.717 104.681 124.89 C 104.349 124.898 104.015 124.912 103.682 124.933 C 102.926 124.301 101.93 124.032 100.957 124.194 C 99.9846 124.356 99.1307 124.933 98.618 125.775 C 98.296 125.863 97.9772 125.958 97.6594 126.058 C 95.1795 127.781 93.3079 130.243 92.3123 133.094 C 91.0818 132.934 89.831 133.121 88.7017 133.636 C 88.205 134.773 88.0367 136.026 88.2159 137.254 C 85.3812 138.294 82.948 140.204 81.264 142.709 C 81.1682 143.028 81.0786 143.349 80.9956 143.672 C 80.1613 144.198 79.5971 145.06 79.4504 146.036 C 79.3036 147.011 79.5888 148.002 80.2316 148.749 C 80.2162 149.082 80.2073 149.415 80.2051 149.749 C 81.0768 152.639 82.8405 155.18 85.2437 157.008 C 84.7113 158.129 84.5032 159.376 84.6432 160.609 C 85.5713 161.433 86.7115 161.98 87.9346 162.19 C 88.0475 165.207 89.1115 168.111 90.9748 170.487 C 91.2486 170.677 91.5261 170.861 91.8074 171.04 C 92.0493 171.995 92.6958 172.799 93.5778 173.239 C 94.4599 173.681 95.4904 173.716 96.4003 173.336 C 96.712 173.453 97.026 173.564 97.3423 173.67 C 100.361 173.733 103.322 172.841 105.804 171.121 C 106.705 171.973 107.827 172.557 109.043 172.805 C 110.113 172.177 110.986 171.261 111.562 170.163 C 114.467 170.987 117.558 170.873 120.393 169.835 C 120.659 169.633 120.919 169.427 121.177 169.214 C 122.161 169.28 123.124 168.913 123.816 168.21 C 124.508 167.508 124.86 166.538 124.78 165.556 C 124.988 165.295 125.19 165.031 125.388 164.763 C 126.381 161.912 126.448 158.82 125.579 155.928 C 126.668 155.334 127.57 154.447 128.181 153.368 C 127.915 152.157 127.314 151.044 126.447 150.154 C 128.13 147.647 128.976 144.673 128.865 141.657 Z" />
  </g>
</svg>
