<?xml version="1.0" encoding="UTF-8" standalone="no"?>
<!-- Created with Inkscape (http://www.inkscape.org/) -->

<svg
   width="210mm"
   height="297mm"
   viewBox="0 0 210 297"
   version="1.1"
   id="svg2226"
   sodipodi:docname="FireFlower.svg"
   inkscape:version="1.1.2 (0a00cf5339, 2022-02-04)"
   xmlns:inkscape="http://www.inkscape.org/namespaces/inkscape"
   xmlns:sodipodi="http://sodipodi.sourceforge.net/DTD/sodipodi-0.dtd"
   xmlns="http://www.w3.org/2000/svg"
   xmlns:svg="http://www.w3.org/2000/svg">
  <sodipodi:namedview
     id="namedview2228"
     pagecolor="#ffffff"
     bordercolor="#666666"
     borderopacity="1.0"
     inkscape:pageshadow="2"
     inkscape:pageopacity="0.0"
     inkscape:pagecheckerboard="0"
     inkscape:document-units="mm"
     showgrid="false"
     inkscape:zoom="0.64052329"
     inkscape:cx="396.55076"
     inkscape:cy="561.25984"
     inkscape:window-width="1920"
     inkscape:window-height="1009"
     inkscape:window-x="0"
     inkscape:window-y="34"
     inkscape:window-maximized="1"
     inkscape:current-layer="layer1" />
  <defs
     id="defs2223" />
  <g
     inkscape:label="Layer 1"
     inkscape:groupmode="layer"
     id="layer1">
    <path
       id="path182"
       style="fill:none;stroke:#000000;stroke-width:0.0679898;stroke-linecap:round"
       d="M 121.361 132.315 C 121.304 131.986 121.241 131.659 121.171 131.333 M 118.765 143.756 C 118.701 142.517 118.291 141.321 117.582 140.302 M 117.582 140.302 C 119.653 138.105 120.976 135.309 121.361 132.315 M 121.171 131.333 C 121.682 130.49 121.801 129.466 121.496 128.528 C 121.192 127.59 120.494 126.832 119.584 126.45 M 119.584 126.45 C 119.449 126.145 119.308 125.843 119.161 125.544 M 111.409 121.304 C 111.384 120.063 111.012 118.854 110.336 117.814 M 119.161 125.544 C 117.089 123.349 114.376 121.864 111.409 121.304 M 108.381 158.723 C 108.676 158.567 108.967 158.406 109.256 158.239 M 96.6972 159.79 C 97.856 159.346 98.8672 158.586 99.6165 157.597 M 99.6165 157.597 C 102.346 158.887 105.414 159.281 108.381 158.723 M 109.256 158.239 C 110.216 158.465 111.226 158.261 112.024 157.681 C 112.822 157.102 113.328 156.203 113.41 155.221 M 113.41 155.221 C 113.658 154.998 113.901 154.771 114.14 154.539 M 115.778 145.855 C 116.95 145.448 117.985 144.721 118.765 143.756 M 114.14 154.539 C 115.588 151.889 116.161 148.85 115.778 145.855 M 79.2543 154.539 C 79.4933 154.771 79.7368 154.998 79.9849 155.221 M 74.6293 143.756 C 75.4096 144.721 76.4445 145.448 77.6167 145.855 M 77.6167 145.855 C 77.233 148.85 77.8062 151.889 79.2543 154.539 M 79.9849 155.221 C 80.0668 156.203 80.5726 157.102 81.3704 157.681 C 82.1682 158.261 83.1789 158.465 84.1389 158.239 M 84.1389 158.239 C 84.4271 158.406 84.7186 158.567 85.0133 158.723 M 93.7779 157.597 C 94.5272 158.586 95.5385 159.346 96.6972 159.79 M 85.0133 158.723 C 87.9804 159.281 91.0482 158.887 93.7779 157.597 M 74.2329 125.544 C 74.086 125.843 73.945 126.145 73.8101 126.45 M 83.0585 117.814 C 82.382 118.854 82.0103 120.063 81.9855 121.304 M 81.9855 121.304 C 79.0187 121.864 76.3051 123.349 74.2329 125.544 M 73.8101 126.45 C 72.9008 126.832 72.2027 127.59 71.898 128.528 C 71.5932 129.466 71.712 130.49 72.2234 131.333 M 72.2234 131.333 C 72.1535 131.659 72.0901 131.986 72.0332 132.315 M 75.8125 140.302 C 75.1033 141.321 74.6934 142.517 74.6293 143.756 M 72.0332 132.315 C 72.4189 135.309 73.7417 138.105 75.8125 140.302 M 100.256 111.809 C 99.9267 111.762 99.5959 111.721 99.2645 111.687 M 110.336 117.814 C 109.138 117.492 107.873 117.512 106.685 117.872 M 106.685 117.872 C 105.236 115.223 102.985 113.101 100.256 111.809 M 86.709 117.872 C 85.5215 117.512 84.2569 117.492 83.0585 117.814 M 93.138 111.809 C 90.4092 113.101 88.1589 115.223 86.709 117.872 M 99.2645 111.687 C 98.6206 110.94 97.6833 110.511 96.6972 110.511 C 95.7111 110.511 94.7738 110.94 94.1299 111.687 M 94.1299 111.687 C 93.7985 111.721 93.4678 111.762 93.138 111.809" />
  </g>
</svg>
