<?xml version="1.0" encoding="UTF-8" standalone="no"?>
<!-- Created with Inkscape (http://www.inkscape.org/) -->

<svg
   id="svg1162"
   version="1.1"
   viewBox="0 0 210 297"
   height="297mm"
   width="210mm"
   sodipodi:docname="G12.svg"
   inkscape:version="1.2.2 (b0a8486541, 2022-12-01)"
   xmlns:inkscape="http://www.inkscape.org/namespaces/inkscape"
   xmlns:sodipodi="http://sodipodi.sourceforge.net/DTD/sodipodi-0.dtd"
   xmlns="http://www.w3.org/2000/svg"
   xmlns:svg="http://www.w3.org/2000/svg">
  <sodipodi:namedview
     id="namedview1164"
     pagecolor="#ffffff"
     bordercolor="#666666"
     borderopacity="1.0"
     inkscape:pageshadow="2"
     inkscape:pageopacity="0.0"
     inkscape:pagecheckerboard="0"
     inkscape:document-units="mm"
     showgrid="false"
     inkscape:zoom="2.5620932"
     inkscape:cx="396.55076"
     inkscape:cy="561.84529"
     inkscape:window-width="1920"
     inkscape:window-height="1011"
     inkscape:window-x="0"
     inkscape:window-y="32"
     inkscape:window-maximized="1"
     inkscape:current-layer="layer1"
     inkscape:showpageshadow="2"
     inkscape:deskcolor="#d1d1d1" />
  <defs
     id="defs1159" />
  <g
     inkscape:label="Layer 1"
     inkscape:groupmode="layer"
     id="layer1">
    <path
       id="path210"
       style="fill:none;stroke:#000000;stroke-width:0.256285;stroke-linecap:round"
       d="M 99.6575 116.526 C 97.1021 115.354 94.3669 114.621 91.5675 114.359 C 91.1542 114.32 90.7399 114.422 90.3916 114.648 C 89.6903 115.103 88.7875 115.102 88.0885 114.647 C 87.7414 114.422 87.3271 114.32 86.9138 114.359 C 84.1143 114.621 81.3792 115.354 78.8238 116.526 C 78.4466 116.7 78.1387 116.995 77.95 117.365 C 77.5702 118.109 76.788 118.56 75.9551 118.516 C 75.5419 118.494 75.1322 118.613 74.7936 118.853 C 72.5002 120.48 70.498 122.482 68.8714 124.776 C 68.6312 125.114 68.5122 125.524 68.5337 125.938 C 68.5768 126.773 68.1249 127.554 67.3815 127.933 C 67.013 128.121 66.7177 128.428 66.5445 128.806 C 65.3717 131.361 64.6388 134.096 64.3768 136.896 C 64.3381 137.309 64.4399 137.723 64.6658 138.072 C 65.1203 138.773 65.1197 139.675 64.6651 140.375 C 64.4399 140.722 64.3381 141.136 64.3768 141.549 C 64.6388 144.349 65.3717 147.084 66.5445 149.639 C 66.7177 150.017 67.013 150.325 67.3827 150.513 C 68.1269 150.893 68.5778 151.675 68.5339 152.508 C 68.5127 152.922 68.6317 153.331 68.8715 153.67 C 70.498 155.963 72.5002 157.965 74.7938 159.592 C 75.1327 159.832 75.5424 159.951 75.9569 159.93 C 76.7913 159.887 77.5729 160.339 77.9511 161.082 C 78.1392 161.451 78.447 161.746 78.824 161.919 C 81.3792 163.092 84.1144 163.824 86.9141 164.086 C 87.3276 164.125 87.7419 164.023 88.0902 163.796 C 88.7915 163.342 89.6943 163.344 90.3932 163.798 C 90.7404 164.023 91.1547 164.125 91.5677 164.086 C 94.3669 163.824 97.1021 163.092 99.6577 161.919 C 100.035 161.746 100.343 161.45 100.532 161.08 C 100.912 160.336 101.694 159.885 102.526 159.93 C 102.94 159.951 103.35 159.832 103.688 159.592 C 105.981 157.965 107.983 155.963 109.61 153.67 C 109.851 153.331 109.97 152.921 109.948 152.507 C 109.905 151.672 110.357 150.891 111.101 150.512 C 111.469 150.325 111.764 150.017 111.937 149.639 C 113.11 147.084 113.842 144.349 114.104 141.549 C 114.143 141.136 114.041 140.722 113.816 140.374 C 113.361 139.672 113.362 138.77 113.817 138.07 C 114.041 137.723 114.143 137.309 114.104 136.896 C 113.842 134.096 113.11 131.361 111.937 128.806 C 111.764 128.428 111.468 128.121 111.099 127.932 C 110.354 127.552 109.904 126.77 109.948 125.937 C 109.969 125.524 109.85 125.114 109.61 124.776 C 107.983 122.482 105.981 120.48 103.688 118.853 C 103.349 118.613 102.939 118.494 102.525 118.516 C 101.69 118.559 100.909 118.107 100.531 117.363 C 100.343 116.995 100.035 116.7 99.6575 116.526 Z" />
  </g>
</svg>
