<?xml version="1.0" encoding="UTF-8" standalone="no"?>
<!-- Created with Inkscape (http://www.inkscape.org/) -->

<svg
   id="svg1258"
   version="1.1"
   viewBox="0 0 210 297"
   height="297mm"
   width="210mm"
   sodipodi:docname="G16.svg"
   inkscape:version="1.2.2 (b0a8486541, 2022-12-01)"
   xmlns:inkscape="http://www.inkscape.org/namespaces/inkscape"
   xmlns:sodipodi="http://sodipodi.sourceforge.net/DTD/sodipodi-0.dtd"
   xmlns="http://www.w3.org/2000/svg"
   xmlns:svg="http://www.w3.org/2000/svg">
  <sodipodi:namedview
     id="namedview1260"
     pagecolor="#ffffff"
     bordercolor="#666666"
     borderopacity="1.0"
     inkscape:pageshadow="2"
     inkscape:pageopacity="0.0"
     inkscape:pagecheckerboard="0"
     inkscape:document-units="mm"
     showgrid="false"
     inkscape:zoom="3.6233469"
     inkscape:cx="396.59465"
     inkscape:cy="561.77343"
     inkscape:window-width="1920"
     inkscape:window-height="1011"
     inkscape:window-x="0"
     inkscape:window-y="32"
     inkscape:window-maximized="1"
     inkscape:current-layer="layer1"
     inkscape:showpageshadow="2"
     inkscape:deskcolor="#d1d1d1" />
  <defs
     id="defs1255" />
  <g
     inkscape:label="Layer 1"
     inkscape:groupmode="layer"
     id="layer1">
    <path
       id="path274"
       style="fill:none;stroke:#000000;stroke-width:0.264583;stroke-linecap:round"
       d="M 110.459 127.79 C 108.765 127.267 107.022 126.921 105.257 126.755 C 104.831 126.715 104.403 126.821 104.044 127.054 C 103.321 127.522 102.39 127.522 101.667 127.054 C 101.308 126.821 100.88 126.715 100.453 126.755 C 98.6884 126.921 96.9453 127.267 95.2516 127.79 C 94.8421 127.916 94.4872 128.177 94.2442 128.53 C 93.7558 129.24 92.8959 129.596 92.0487 129.44 C 91.6273 129.362 91.1919 129.428 90.813 129.629 C 89.2457 130.456 87.768 131.444 86.4033 132.575 C 86.0734 132.848 85.8453 133.225 85.7559 133.644 C 85.5762 134.487 84.918 135.145 84.0755 135.325 C 83.6564 135.414 83.2796 135.642 83.0062 135.972 C 81.875 137.337 80.8876 138.815 80.0597 140.382 C 79.8595 140.761 79.793 141.196 79.8708 141.618 C 80.0272 142.465 79.671 143.325 78.9613 143.813 C 78.6083 144.056 78.3476 144.411 78.2212 144.82 C 77.6984 146.514 77.3517 148.257 77.1865 150.022 C 77.1466 150.449 77.2517 150.876 77.4848 151.236 C 77.9535 151.959 77.9535 152.89 77.4848 153.612 C 77.2517 153.972 77.1466 154.4 77.1865 154.826 C 77.3517 156.591 77.6984 158.334 78.2212 160.028 C 78.3476 160.437 78.6083 160.792 78.9613 161.035 C 79.671 161.524 80.0272 162.384 79.8708 163.231 C 79.793 163.652 79.8595 164.088 80.0597 164.467 C 80.8876 166.034 81.875 167.512 83.0062 168.876 C 83.2796 169.206 83.6564 169.434 84.0755 169.524 C 84.918 169.703 85.5762 170.362 85.7559 171.204 C 85.8453 171.623 86.0734 172 86.4033 172.273 C 87.768 173.405 89.2457 174.392 90.813 175.22 C 91.1919 175.42 91.6273 175.487 92.0487 175.409 C 92.8959 175.252 93.7558 175.609 94.2442 176.318 C 94.4872 176.671 94.8421 176.932 95.2516 177.058 C 96.9453 177.581 98.6884 177.928 100.453 178.093 C 100.88 178.133 101.308 178.028 101.667 177.795 C 102.39 177.326 103.321 177.326 104.044 177.795 C 104.403 178.028 104.831 178.133 105.258 178.093 C 107.022 177.928 108.765 177.581 110.459 177.058 C 110.869 176.932 111.223 176.671 111.466 176.318 C 111.955 175.609 112.815 175.252 113.662 175.409 C 114.083 175.487 114.519 175.42 114.898 175.22 C 116.465 174.392 117.943 173.405 119.307 172.273 C 119.637 172 119.865 171.623 119.955 171.204 C 120.135 170.362 120.793 169.703 121.635 169.524 C 122.054 169.434 122.431 169.206 122.705 168.876 C 123.836 167.512 124.823 166.034 125.651 164.467 C 125.851 164.088 125.918 163.652 125.84 163.231 C 125.684 162.384 126.04 161.524 126.749 161.035 C 127.102 160.792 127.363 160.437 127.49 160.028 C 128.012 158.334 128.359 156.591 128.524 154.826 C 128.564 154.4 128.459 153.972 128.226 153.612 C 127.757 152.89 127.757 151.959 128.226 151.236 C 128.459 150.876 128.564 150.449 128.524 150.022 C 128.359 148.257 128.012 146.514 127.49 144.82 C 127.363 144.411 127.102 144.056 126.749 143.813 C 126.04 143.325 125.684 142.465 125.84 141.618 C 125.918 141.196 125.851 140.761 125.651 140.382 C 124.823 138.815 123.836 137.337 122.705 135.972 C 122.431 135.642 122.054 135.414 121.635 135.325 C 120.793 135.145 120.135 134.487 119.955 133.644 C 119.865 133.225 119.637 132.848 119.307 132.575 C 117.943 131.444 116.465 130.456 114.898 129.629 C 114.519 129.428 114.083 129.362 113.662 129.44 C 112.815 129.596 111.955 129.24 111.466 128.53 C 111.223 128.177 110.869 127.916 110.459 127.79 Z" />
  </g>
</svg>
