<?xml version="1.0" encoding="UTF-8" standalone="no"?>
<!-- Created with Inkscape (http://www.inkscape.org/) -->

<svg
   width="210mm"
   height="297mm"
   viewBox="0 0 210 297"
   version="1.1"
   id="svg1"
   xmlns="http://www.w3.org/2000/svg"
   xmlns:svg="http://www.w3.org/2000/svg">
  <defs
     id="defs1" />
  <circle
     style="fill:#000000;stroke-width:2;stroke-linecap:square;paint-order:markers fill stroke"
     id="center"
     cx="60.823368"
     cy="198.70671"
     r="0.5324952" />
  <path
     id="path1"
     d="m 60.524683,183.24746 -5.04e-4,0.25811 -4.070503,1.75765 c 3.03985,3.79397 -2.413166,2.46871 -0.377667,3.95519 2.182279,1.59367 3.173519,2.59845 1.893456,5.33922 -3.013609,-0.26182 -3.388136,-1.62271 -3.677156,-4.30946 -0.26958,-2.50603 -1.848354,2.87904 -3.614137,-1.65048 l -3.557331,2.64634 -0.223825,-0.12862 -0.03764,0.32314 -0.260984,0.19413 0.223249,0.12949 -0.513062,4.40399 c 4.805568,-0.73555 0.931325,3.32426 3.236403,2.30471 2.471299,-1.09308 3.837161,-1.44919 5.570709,1.02976 -1.733548,2.47895 -3.09941,2.12284 -5.570709,1.02977 -2.305078,-1.01955 1.569165,3.04025 -3.236403,2.30471 l 0.513062,4.40398 -0.223249,0.12949 0.260984,0.19414 0.03764,0.32314 0.223825,-0.12863 3.557343,2.64634 c 1.407107,-3.60946 2.695467,-0.92302 3.297219,-0.95085 0.0059,-2.5e-4 0.01176,-7.5e-4 0.01753,-0.002 0.144176,-0.0201 0.246738,-0.20854 0.299391,-0.698 0.289019,-2.68675 0.663549,-4.04764 3.677158,-4.30946 1.28006,2.74077 0.288823,3.74555 -1.893459,5.33922 -2.035498,1.48648 3.41752,0.16122 0.377735,3.95519 l 4.070501,1.75765 5.03e-4,0.25811 0.298624,-0.12891 0.298624,0.12891 5.03e-4,-0.25811 4.070506,-1.75765 c -3.03979,-3.79397 2.413327,-2.46871 0.37783,-3.95519 -2.182282,-1.59367 -3.173616,-2.59845 -1.893554,-5.33922 3.013609,0.26182 3.38804,1.62271 3.677058,4.30946 0.05687,0.52861 0.171991,0.70612 0.334831,0.69963 0.006,-1.9e-4 0.01214,-7.6e-4 0.01828,-0.002 0.566847,-0.0678 1.683213,-2.2 2.932416,0.21482 0.108626,0.20998 0.218337,0.45437 0.328697,0.73746 l 3.55734,-2.64634 0.223803,0.12863 0.03764,-0.32314 0.260981,-0.19414 -0.223247,-0.12948 0.513062,-4.40399 c -4.805566,0.73554 -0.931323,-3.32427 -3.236403,-2.30471 -2.471299,1.09307 -3.837163,1.44918 -5.570707,-1.02977 1.733544,-2.47895 3.099408,-2.12284 5.570707,-1.02976 2.30508,1.01955 -1.569163,-3.04026 3.236403,-2.30471 l -0.513062,-4.40399 0.223247,-0.12949 -0.260981,-0.19413 -0.03764,-0.32315 -0.223826,0.12863 -3.557342,-2.64634 c -1.765781,4.52952 -3.344651,-0.85555 -3.614233,1.65048 -0.289015,2.68675 -0.663446,4.04764 -3.67706,4.30946 -1.280058,-2.74077 -0.288725,-3.74555 1.893556,-5.33922 2.035497,-1.48648 -3.417617,-0.16122 -0.37783,-3.95519 l -4.070503,-1.75765 -5.03e-4,-0.25811 -0.298627,0.12891 z"
     style="fill:none;stroke:#000000;stroke-width:0.264584" />
</svg>
