<?xml version="1.0" encoding="UTF-8" standalone="no"?>
<!-- Created with Inkscape (http://www.inkscape.org/) -->

<svg
   width="210mm"
   height="297mm"
   viewBox="0 0 210 297"
   version="1.1"
   id="svg1178"
   sodipodi:docname="I24.svg"
   inkscape:version="1.2.2 (b0a8486541, 2022-12-01)"
   xmlns:inkscape="http://www.inkscape.org/namespaces/inkscape"
   xmlns:sodipodi="http://sodipodi.sourceforge.net/DTD/sodipodi-0.dtd"
   xmlns="http://www.w3.org/2000/svg"
   xmlns:svg="http://www.w3.org/2000/svg">
  <sodipodi:namedview
     id="namedview1180"
     pagecolor="#ffffff"
     bordercolor="#666666"
     borderopacity="1.0"
     inkscape:pageshadow="2"
     inkscape:pageopacity="0.0"
     inkscape:pagecheckerboard="0"
     inkscape:document-units="mm"
     showgrid="false"
     inkscape:zoom="2.5620932"
     inkscape:cx="396.55076"
     inkscape:cy="561.84529"
     inkscape:window-width="1920"
     inkscape:window-height="1011"
     inkscape:window-x="0"
     inkscape:window-y="32"
     inkscape:window-maximized="1"
     inkscape:current-layer="layer1"
     inkscape:showpageshadow="2"
     inkscape:deskcolor="#d1d1d1" />
  <defs
     id="defs1175" />
  <g
     inkscape:label="Layer 1"
     inkscape:groupmode="layer"
     id="layer1">
    <path
       id="path218"
       style="fill:none;stroke:#000000;stroke-width:0.264583;stroke-linecap:round"
       d="M 92.1154 174.488 C 92.7592 174.488 93.3653 174.185 93.7516 173.67 C 94.6005 172.902 95.7247 172.513 96.8663 172.591 C 97.9991 172.681 99.0982 172.18 99.7731 171.265 C 100.404 170.377 101.393 169.812 102.477 169.718 C 103.568 169.631 104.527 168.962 104.986 167.968 C 105.42 167 106.274 166.284 107.304 166.025 C 108.35 165.759 109.168 164.942 109.434 163.895 C 109.692 162.865 110.409 162.011 111.377 161.577 C 112.37 161.118 113.039 160.159 113.127 159.069 C 113.22 157.983 113.786 156.994 114.674 156.364 C 115.588 155.689 116.089 154.59 116 153.457 C 115.922 152.316 116.311 151.192 117.078 150.343 C 117.593 149.956 117.896 149.35 117.896 148.707 C 117.896 148.063 117.593 147.457 117.078 147.07 C 116.311 146.221 115.922 145.097 116 143.956 C 116.089 142.823 115.588 141.724 114.674 141.049 C 113.786 140.419 113.22 139.43 113.127 138.345 C 113.039 137.254 112.37 136.295 111.377 135.836 C 110.409 135.402 109.692 134.548 109.434 133.518 C 109.168 132.472 108.35 131.654 107.304 131.388 C 106.274 131.129 105.42 130.413 104.986 129.445 C 104.527 128.451 103.568 127.783 102.477 127.695 C 101.393 127.601 100.404 127.036 99.7731 126.148 C 99.0982 125.234 97.9991 124.732 96.8663 124.822 C 95.7247 124.9 94.6005 124.511 93.7516 123.743 C 93.3653 123.229 92.7591 122.926 92.1154 122.926 C 91.4717 122.926 90.8656 123.229 90.4793 123.743 C 89.6304 124.511 88.5062 124.9 87.3646 124.822 C 86.2317 124.732 85.1327 125.234 84.4578 126.148 C 83.8273 127.036 82.8383 127.601 81.7535 127.695 C 80.6628 127.783 79.7041 128.451 79.2452 129.445 C 78.811 130.413 77.9568 131.129 76.9274 131.388 C 75.8805 131.654 75.063 132.472 74.7967 133.518 C 74.5384 134.548 73.8223 135.402 72.8537 135.836 C 71.8605 136.295 71.1916 137.254 71.1035 138.345 C 71.0108 139.43 70.445 140.419 69.5568 141.049 C 68.6428 141.724 68.1417 142.823 68.2313 143.956 C 68.309 145.097 67.9196 146.221 67.1524 147.07 C 66.6375 147.457 66.3344 148.063 66.3344 148.707 C 66.3344 149.35 66.6375 149.956 67.1524 150.343 C 67.9196 151.192 68.309 152.316 68.2313 153.457 C 68.1417 154.59 68.6428 155.689 69.5568 156.364 C 70.445 156.994 71.0108 157.983 71.1035 159.068 C 71.1916 160.159 71.8605 161.118 72.8537 161.577 C 73.8223 162.011 74.5384 162.865 74.7967 163.895 C 75.063 164.942 75.8805 165.759 76.9274 166.025 C 77.9568 166.284 78.811 167 79.2452 167.968 C 79.7041 168.962 80.6628 169.631 81.7535 169.718 C 82.8383 169.812 83.8273 170.377 84.4578 171.265 C 85.1327 172.18 86.2317 172.681 87.3646 172.591 C 88.5062 172.513 89.6304 172.902 90.4793 173.67 C 90.8656 174.185 91.4717 174.488 92.1154 174.488 Z" />
  </g>
</svg>
