<?xml version="1.0" encoding="UTF-8" standalone="no"?>
<!-- Created with Inkscape (http://www.inkscape.org/) -->

<svg
   width="210mm"
   height="297mm"
   viewBox="0 0 210 297"
   version="1.1"
   id="svg1662"
   sodipodi:docname="IceFlower.svg"
   inkscape:version="1.4.2 (1:1.4.2+202505120738+ebf0e940d0)"
   xmlns:inkscape="http://www.inkscape.org/namespaces/inkscape"
   xmlns:sodipodi="http://sodipodi.sourceforge.net/DTD/sodipodi-0.dtd"
   xmlns="http://www.w3.org/2000/svg"
   xmlns:svg="http://www.w3.org/2000/svg">
  <sodipodi:namedview
     id="namedview1664"
     pagecolor="#ffffff"
     bordercolor="#666666"
     borderopacity="1.0"
     inkscape:pageshadow="2"
     inkscape:pageopacity="0.0"
     inkscape:pagecheckerboard="0"
     inkscape:document-units="mm"
     showgrid="false"
     inkscape:zoom="1.8116734"
     inkscape:cx="324.00984"
     inkscape:cy="533.20869"
     inkscape:window-width="1920"
     inkscape:window-height="1016"
     inkscape:window-x="1920"
     inkscape:window-y="27"
     inkscape:window-maximized="1"
     inkscape:current-layer="layer1"
     inkscape:showpageshadow="0"
     inkscape:deskcolor="#d1d1d1" />
  <defs
     id="defs1659" />
  <g
     inkscape:label="Layer 1"
     inkscape:groupmode="layer"
     id="layer1">
    <path
       id="path104"
       style="fill:none;stroke:#000000;stroke-width:0.264583;stroke-linecap:round"
       d="M 137.668 124.131 C 137.068 122.025 135.572 120.288 133.577 119.384 C 131.582 118.479 129.291 118.498 127.311 119.434 C 127.311 119.434 126.658 114.855 126.658 114.855 C 126.658 114.855 122.365 116.58 122.365 116.58 C 122.187 114.397 121.057 112.403 119.276 111.127 C 117.495 109.852 115.244 109.424 113.12 109.958 C 113.12 109.958 106.16 104.004 106.16 104.004 C 106.16 104.004 99.2003 109.958 99.2003 109.958 C 97.076 109.424 94.8244 109.852 93.0436 111.127 C 91.2629 112.403 90.1332 114.397 89.9548 116.58 C 89.9548 116.58 85.6621 114.855 85.6621 114.855 C 85.6621 114.855 85.0091 119.434 85.0091 119.434 C 83.0292 118.498 80.7375 118.479 78.7426 119.384 C 76.7477 120.288 75.2516 122.025 74.6518 124.131 C 74.6518 124.131 66.0152 127.181 66.0152 127.181 C 66.0152 127.181 67.6922 136.185 67.6922 136.185 C 66.1677 137.758 65.4122 139.922 65.6263 142.102 C 65.8404 144.282 67.0025 146.257 68.8039 147.504 C 68.8039 147.504 65.1643 150.359 65.1643 150.359 C 65.1643 150.359 68.8039 153.214 68.8039 153.214 C 67.0025 154.46 65.8404 156.436 65.6263 158.615 C 65.4121 160.795 66.1677 162.959 67.6922 164.533 C 67.6922 164.533 66.0152 173.536 66.0152 173.536 C 66.0152 173.536 74.6518 176.587 74.6518 176.587 C 75.2516 178.693 76.7477 180.429 78.7426 181.334 C 80.7375 182.238 83.0292 182.219 85.0091 181.282 C 85.0091 181.282 85.6621 185.863 85.6621 185.863 C 85.6621 185.863 89.9548 184.138 89.9548 184.138 C 90.1332 186.321 91.2629 188.315 93.0436 189.59 C 94.8244 190.866 97.076 191.293 99.2003 190.758 C 99.2003 190.758 106.16 196.714 106.16 196.714 C 106.16 196.714 113.12 190.758 113.12 190.758 C 115.244 191.293 117.495 190.866 119.276 189.59 C 121.057 188.315 122.187 186.321 122.365 184.138 C 122.365 184.138 126.658 185.863 126.658 185.863 C 126.658 185.863 127.311 181.283 127.311 181.282 C 129.291 182.219 131.582 182.238 133.577 181.334 C 135.572 180.429 137.068 178.693 137.668 176.586 C 137.668 176.587 146.305 173.536 146.305 173.536 C 146.305 173.536 144.628 164.533 144.628 164.532 C 146.152 162.959 146.908 160.795 146.694 158.615 C 146.48 156.436 145.317 154.46 143.516 153.214 C 143.516 153.214 147.156 150.359 147.156 150.359 C 147.156 150.359 143.516 147.504 143.516 147.503 C 145.317 146.257 146.479 144.282 146.694 142.102 C 146.908 139.922 146.152 137.758 144.628 136.185 C 144.628 136.185 146.305 127.181 146.305 127.181 Z" />
  </g>
</svg>
