<?xml version="1.0" encoding="UTF-8" standalone="no"?>
<!-- Created with Inkscape (http://www.inkscape.org/) -->

<svg
   width="210mm"
   height="297mm"
   viewBox="0 0 210 297"
   version="1.1"
   id="svg1"
   xmlns="http://www.w3.org/2000/svg"
   xmlns:svg="http://www.w3.org/2000/svg">
  <defs
     id="defs1" />
  <circle
     style="fill:#000000;stroke-width:2;stroke-linecap:square;paint-order:markers fill stroke"
     id="center"
     cx="103.95045"
     cy="150.41432"
     r="2.1146724" />
  <path
     id="path1-4"
     d="m 100.41888,93.87875 -1.97507,2.798794 -5.17747,1.60352 -6.83369,-3.82044 -9.636102,8.920896 -5.29e-4,5.3e-4 -12.543938,3.88452 -0.108003,7.82847 h -5.29e-4 l -2.31562,2.14405 -1.661398,1.53789 -3.411678,0.31109 -0.818555,3.60547 -2.713013,2.51147 1.436605,3.10989 -1.199928,5.28546 h -5.29e-4 l -6.725131,4.00802 2.907831,12.80593 v 5.3e-4 l -2.907831,12.80542 6.725171,4.00803 h 5.29e-4 l 1.199928,5.28546 -1.436606,3.10989 2.713014,2.51147 0.818555,3.60547 3.411677,0.31109 3.977018,3.68194 h 5.3e-4 l 0.108003,7.82847 12.544453,3.88503 9.636106,8.92091 6.83369,-3.82044 5.17746,1.60352 1.97507,2.79879 3.53157,-1.09347 3.53157,1.09347 1.97507,-2.79879 5.17748,-1.60352 6.83368,3.82044 9.63663,-8.92142 12.54392,-3.88452 0.108,-7.82847 v 0 l 2.31561,-2.14405 1.6614,-1.53789 3.41169,-0.31109 0.81855,-3.60547 2.71301,-2.51147 -1.43661,-3.10989 1.19994,-5.28546 v 0 l 6.72618,-4.00804 -2.90782,-12.80594 2.90782,-12.80593 -6.72518,-4.00803 v 0 l -1.19994,-5.28546 1.43661,-3.10989 -2.71301,-2.51148 -0.81854,-3.60546 -3.4117,-0.31109 -3.977,-3.68195 v 0 l -0.108,-7.82846 -12.54393,-3.88452 -9.63662,-8.921416 -6.83369,3.82044 -5.17747,-1.60352 -1.97507,-2.798794 -3.5326,1.093472 z"
     style="fill:none;stroke:#000000;stroke-width:0.264583" />
</svg>
