<?xml version="1.0" encoding="UTF-8" standalone="no"?>
<!-- Created with Inkscape (http://www.inkscape.org/) -->

<svg
   width="210mm"
   height="297mm"
   viewBox="0 0 210 297"
   version="1.1"
   id="svg1"
   xmlns="http://www.w3.org/2000/svg"
   xmlns:svg="http://www.w3.org/2000/svg">
  <defs
     id="defs1" />
  <circle
     style="fill:#000000;stroke-width:2;stroke-linecap:square;paint-order:markers fill stroke"
     id="center"
     cx="103.95045"
     cy="150.41432"
     r="2.1146724" />
  <path
     style="fill:none;stroke:#000000;stroke-width:0.264583"
     d="m 98.041248,97.51315 -19.046901,4.5806 -0.996321,3.3693 -3.416329,-0.82165 -13.490649,14.20482 2.433961,8.22843 -8.343162,2.0066 -5.55625,18.78541 2.419493,2.54765 -2.419493,2.54765 5.55625,18.78542 8.343162,2.00659 -2.433961,8.22844 13.490649,14.20482 3.416329,-0.82166 0.996321,3.36931 19.046901,4.5806 5.909202,-6.22185 5.9092,6.22185 19.04691,-4.5806 0.99631,-3.36931 3.41633,0.82166 13.49065,-14.20482 -2.43395,-8.22844 8.34315,-2.00659 5.55625,-18.78542 -2.4195,-2.54765 2.4195,-2.54765 -5.55625,-18.78541 -8.34315,-2.0066 2.43395,-8.22843 -13.49065,-14.20482 -3.41633,0.82165 -0.99631,-3.3693 -19.04691,-4.5806 -5.9092,6.22184 z"
     id="path1" />
</svg>
