<?xml version="1.0" encoding="UTF-8" standalone="no"?>
<!-- Created with Inkscape (http://www.inkscape.org/) -->

<svg
   width="210mm"
   height="297mm"
   viewBox="0 0 210 297"
   version="1.1"
   id="svg1"
   xmlns="http://www.w3.org/2000/svg"
   xmlns:svg="http://www.w3.org/2000/svg">
  <defs
     id="defs1" />
  <circle
     style="fill:#000000;stroke-width:2;stroke-linecap:square;paint-order:markers fill stroke"
     id="center"
     cx="104.24008"
     cy="148.69017"
     r="2.1146724" />
  <path
     id="path1"
     d="m 123.46836,81.68862 a 37.425217,37.425217 0 0 0 -19.24429,6.68693 37.425217,37.425217 0 0 0 -4.414723,-2.64945 37.425217,37.425217 0 0 0 -42.989623,6.40374 l -0.670761,0.29972 -3.767212,-1.6831 -1.879473,4.20595 -4.205943,1.87947 1.683101,3.76721 -0.295074,0.66043 a 37.425217,37.425217 0 0 0 -3.758943,47.44671 37.425217,37.425217 0 0 0 3.754295,47.40434 l 0.299722,0.67076 -1.683101,3.76721 4.205943,1.87948 1.879473,4.20594 3.767212,-1.6831 0.659908,0.29455 5.29e-4,5.3e-4 a 37.425217,37.425217 0 0 0 47.44672,3.75895 37.425217,37.425217 0 0 0 47.40434,-3.7543 l 0.67074,-0.29972 3.76722,1.68309 1.87947,-4.20594 4.20595,-1.87948 -1.6831,-3.76721 0.29456,-0.6599 a 37.425217,37.425217 0 0 0 3.75944,-47.44724 37.425217,37.425217 0 0 0 -3.75428,-47.40434 l -0.29972,-0.67076 1.6831,-3.76721 -4.20595,-1.87947 -1.87947,-4.20595 -3.76722,1.6831 -0.65989,-0.29455 A 37.425217,37.425217 0 0 0 123.46836,81.68862 Z"
     style="fill:none;stroke:#000000;stroke-width:0.264583" />
</svg>
