<?xml version="1.0" encoding="UTF-8" standalone="no"?>
<!-- Created with Inkscape (http://www.inkscape.org/) -->

<svg
   width="210mm"
   height="297mm"
   viewBox="0 0 210 297"
   version="1.1"
   id="svg1"
   inkscape:version="1.4.2 (1:1.4.2+202505120738+ebf0e940d0)"
   sodipodi:docname="sawtooth-20.svg"
   xmlns:inkscape="http://www.inkscape.org/namespaces/inkscape"
   xmlns:sodipodi="http://sodipodi.sourceforge.net/DTD/sodipodi-0.dtd"
   xmlns="http://www.w3.org/2000/svg"
   xmlns:svg="http://www.w3.org/2000/svg">
  <sodipodi:namedview
     id="namedview1"
     pagecolor="#FFFFFF"
     bordercolor="#eeeeee"
     borderopacity="1"
     inkscape:showpageshadow="0"
     inkscape:pageopacity="0"
     inkscape:pagecheckerboard="0"
     inkscape:deskcolor="#d1d1d1"
     inkscape:document-units="mm"
     inkscape:zoom="0.3599046"
     inkscape:cx="397.32751"
     inkscape:cy="561.25984"
     inkscape:window-width="1920"
     inkscape:window-height="1016"
     inkscape:window-x="1920"
     inkscape:window-y="27"
     inkscape:window-maximized="1"
     inkscape:current-layer="layer1" />
  <defs
     id="defs1" />
  <g
     inkscape:label="Layer 1"
     inkscape:groupmode="layer"
     id="layer1">
    <path
       d="m 88.604013,100.80625 -2.73902,5.74048 -4.86203,-3.73157 -0.83108,6.30646 -5.77712,-2.04675 1.15847,6.25432 -6.12684,-0.16115 3.03423,5.59034 -5.8769,1.73993 4.61329,4.37915 -5.05118,3.47062 5.74047,2.73902 -3.73157,4.86202 6.30647,0.83109 -2.04675,5.77712 6.25431,-1.15847 -0.16114,6.12684 5.59034,-3.03423 1.73992,5.87691 4.37916,-4.6133 3.47063,5.05119 2.73901,-5.74048 4.862007,3.73157 0.83109,-6.30646 5.77711,2.04675 -1.15845,-6.25433 6.12682,0.16115 -3.03422,-5.59033 5.87691,-1.73993 -4.6133,-4.37916 5.05118,-3.47062 -5.74048,-2.73902 3.73157,-4.86202 -6.30646,-0.83109 2.04675,-5.77711 -6.25431,1.15846 0.16115,-6.12683 -5.590347,3.03422 -1.73991,-5.8769 -4.37916,4.61329 z"
       id="path1-0"
       style="stroke-width:0.264583" />
  </g>
</svg>
