<?xml version="1.0" encoding="UTF-8" standalone="no"?>
<!-- Created with Inkscape (http://www.inkscape.org/) -->

<svg
   width="210mm"
   height="297mm"
   viewBox="0 0 210 297"
   version="1.1"
   id="svg1"
   xml:space="preserve"
   xmlns="http://www.w3.org/2000/svg"
   xmlns:svg="http://www.w3.org/2000/svg"><defs
     id="defs1" /><circle
     style="fill:#000000;stroke-width:2;stroke-linecap:square;paint-order:markers fill stroke"
     id="center"
     cx="146.32289"
     cy="207.31279"
     r="0.5324952" /><path
     style="fill:none;stroke:#000000"
     d="m 150.86203,242.94113 c 0.25128,-0.3835 0.85868,-1.8904 1.34977,-3.34865 1.52054,-4.51513 1.97508,-4.61897 5.50376,-1.25739 2.33855,2.22782 3.47252,2.93002 4.1027,2.54054 0.51241,-0.31668 0.81564,-2.14156 0.81711,-4.91741 0.002,-4.45724 0.53433,-4.75949 4.70264,-2.67194 3.12776,1.56643 4.06587,1.81188 4.65881,1.21894 0.61858,-0.61858 0.54318,-1.30935 -0.50935,-4.66636 -1.42619,-4.54875 -1.05351,-5.06758 3.12806,-4.35481 1.37866,0.235 2.98942,0.42728 3.57946,0.42728 1.01908,0 1.90436,-0.50473 1.90436,-1.08573 0,-0.60956 -0.84576,-2.1141 -2.35007,-4.18061 -1.66258,-2.28393 -1.99329,-3.35381 -1.23199,-3.98563 0.21268,-0.17651 1.6712,-0.53863 3.24115,-0.80471 1.56995,-0.26609 3.09257,-0.57107 3.38362,-0.67773 0.74352,-0.2725 1.4552,-0.92586 1.4552,-1.33594 0,-0.60054 -1.53437,-2.12635 -3.72283,-3.70206 -3.08484,-2.22109 -3.14259,-3.06969 -0.30408,-4.46822 1.28678,-0.63399 1.45533,-0.89381 1.76257,-0.91833 0.30724,-0.0245 0.26682,-0.1797 1.02497,-0.5692 1.02129,-0.5247 2.03312,-1.63736 2.03312,-2.23571 0,-0.79502 -0.9097,-1.33199 -4.04592,-2.38817 -4.47766,-1.50792 -4.61059,-2.00958 -1.41528,-5.341 3.15278,-3.28706 3.45998,-4.04796 1.89783,-4.70067 -0.6177,-0.25809 -1.89541,-0.38338 -3.90988,-0.38338 -4.68995,0 -4.98884,-0.48809 -2.87887,-4.70116 1.56643,-3.12776 1.81188,-4.06587 1.21893,-4.65881 -0.61857,-0.61858 -1.30934,-0.54318 -4.66636,0.50935 -4.54874,1.42619 -5.06758,1.05351 -4.3548,-3.12806 0.235,-1.37866 0.42727,-2.98942 0.42727,-3.57946 0,-1.01908 -0.50472,-1.90436 -1.08573,-1.90436 -0.60956,0 -2.1141,0.84576 -4.1806,2.35007 -2.28394,1.66258 -3.35381,1.99329 -3.98563,1.23199 -0.17651,-0.21268 -0.53864,-1.6712 -0.80472,-3.24114 -0.26609,-1.56995 -0.57106,-3.09258 -0.67773,-3.38362 -0.2725,-0.74353 -0.92585,-1.45521 -1.33593,-1.45521 -0.60055,0 -2.12636,1.53437 -3.70206,3.72283 -1.54523,2.14614 -2.39462,2.71424 -3.2524,2.17534 -0.23214,-0.14584 -1.01739,-1.40413 -1.74499,-2.79619 -1.57102,-3.0057 -2.28904,-3.89573 -3.14282,-3.89573 -0.85251,0 -1.36079,0.84302 -2.43942,4.04593 -1.52055,4.51513 -1.97509,4.61897 -5.50376,1.25738 -2.33855,-2.22782 -3.47252,-2.93001 -4.10271,-2.54054 -0.5124,0.31669 -0.81564,2.14157 -0.81711,4.91742 -0.002,4.45724 -0.53432,4.75949 -4.70263,2.67193 -3.12776,-1.56643 -4.06588,-1.81187 -4.65882,-1.21893 -0.61858,0.61858 -0.54318,1.30934 0.50936,4.66636 1.42618,4.54874 1.0535,5.06758 -3.12806,4.35481 -1.37866,-0.23501 -2.98942,-0.42728 -3.57947,-0.42728 -1.01908,0 -1.90435,0.50472 -1.90435,1.08573 0,0.60956 0.84575,2.1141 2.35006,4.1806 1.66259,2.28394 1.9933,3.35381 1.232,3.98564 -0.21269,0.17651 -1.70129,0.54193 -3.30802,0.81205 -5.88367,0.98916 -6.10372,1.80668 -1.44381,5.36385 2.43312,1.85734 3.09109,2.76431 2.58985,3.56995 -0.15366,0.24698 -1.42598,1.05053 -2.82737,1.78567 -2.88509,1.51344 -3.88438,2.33075 -3.88438,3.17699 0,0.79882 0.90512,1.33383 4.04593,2.39155 4.51513,1.52055 4.61897,1.97509 1.25739,5.50376 -2.22782,2.33856 -2.93002,3.47253 -2.54054,4.10271 0.31668,0.5124 2.14156,0.81564 4.91741,0.81711 4.45724,0.002 4.75949,0.53432 2.67194,4.70263 -1.56643,3.12776 -1.81188,4.06588 -1.21894,4.65882 0.61858,0.61858 1.30935,0.54318 4.66636,-0.50936 4.55405,-1.42784 5.00888,-1.10468 4.34495,3.08721 -0.22958,1.4495 -0.41742,3.09843 -0.41742,3.66429 0,0.97578 0.51626,1.86038 1.08573,1.86038 0.60956,0 2.1141,-0.84575 4.18061,-2.35006 2.28393,-1.66259 3.35381,-1.99329 3.98563,-1.23199 0.17651,0.21268 0.53863,1.67119 0.80472,3.24114 0.26608,1.56995 0.57106,3.09258 0.67773,3.38362 0.27249,0.74352 0.92585,1.45521 1.33593,1.45521 0.60054,0 2.12635,-1.53437 3.70206,-3.72284 2.2211,-3.08483 3.06969,-3.14258 4.46822,-0.30407 0.56312,1.14293 0.9475,1.61724 1.32292,1.63239 0.39905,0.0161 0.44112,0.0772 0.17112,0.24826 -0.43581,0.27615 -0.0807,1.08693 0.96904,2.21241 0.8602,0.92227 1.70681,0.93344 2.29856,0.0303 z"
     id="path10" /></svg>
