<?xml version="1.0" encoding="UTF-8" standalone="no"?>
<!-- Created with Inkscape (http://www.inkscape.org/) -->

<svg
   width="210mm"
   height="297mm"
   viewBox="0 0 210 297"
   version="1.1"
   id="svg1"
   xmlns="http://www.w3.org/2000/svg"
   xmlns:svg="http://www.w3.org/2000/svg">
  <defs
     id="defs1" />
  <g
     id="layer1">
    <circle
       style="fill:#000000;stroke-width:2;stroke-linecap:square;paint-order:markers fill stroke;stroke:none"
       id="center"
       cx="97.838699"
       cy="142.04111"
       r="0.5" />
    <path
       style="fill:none;stroke:#000000;stroke-width:0.499999;stroke-linecap:square;paint-order:markers fill stroke"
       d="m 107.21364,110.55705 -0.30527,0.49595 -0.31578,0.48646 -0.32594,0.47729 -0.33572,0.46843 -0.34517,0.4599 -0.35427,0.4517 -0.36299,0.4438 -0.37138,0.43623 -0.37941,0.42899 -0.38708,0.42204 -0.3944,0.41544 -0.40137,0.40916 -0.40798,0.40318 -0.41424,0.39754 -0.42014,0.3922 -0.4257,0.38721 -0.43974,0.0652 -0.43303,0.0866 -0.425713,0.10743 -0.417762,0.12782 -0.409192,0.14771 -0.400002,0.16711 -0.390192,0.18603 -0.379759,0.20444 -0.368704,0.22237 -0.357029,0.23979 -0.344731,0.25673 -0.331814,0.27318 -0.318272,0.28912 -0.304111,0.30458 -0.28933,0.31954 -0.273925,0.33401 -0.330515,-0.25193 -0.341441,-0.23573 -0.351736,-0.21921 -0.361394,-0.20238 -0.370437,-0.18517 -0.378834,-0.16767 -0.386617,-0.14981 -0.393757,-0.13166 -0.400252,-0.11322 -0.406132,-0.0944 -0.411395,-0.0752 -0.415988,-0.0558 -0.419992,-0.036 -0.423327,-0.0159 -0.426065,0.005 -0.428153,0.0253 -0.487714,-0.29086 -0.482555,-0.29761 -0.476969,-0.30495 -0.470956,-0.31283 -0.46452,-0.32126 -0.457652,-0.33028 -0.450358,-0.33984 -0.442639,-0.34997 -0.434491,-0.36066 -0.425916,-0.3719 -0.416918,-0.3837 -0.407488,-0.39608 -0.397632,-0.409 -0.387351,-0.42249 -0.37664,-0.43655 -0.365506,-0.45114 -5e-6,10e-6 -5e-6,2e-5 -8e-6,3e-5 -6e-6,2e-5 -5e-6,2e-5 -5e-6,2e-5 -6e-6,2e-5 -8e-6,3e-5 -5e-6,2e-5 -6e-6,2e-5 -5e-6,2e-5 -5e-6,2e-5 -6e-6,2e-5 -8e-6,2e-5 -5e-6,2e-5 -5e-6,2e-5 0.13485,0.56659 0.120703,0.56733 0.107033,0.56802 0.09384,0.56869 0.08113,0.56935 0.06889,0.56996 0.05713,0.57057 0.04585,0.57114 0.03504,0.57171 0.02472,0.57221 0.01487,0.57272 0.0055,0.5732 -0.0034,0.57365 -0.01182,0.57407 -0.01976,0.57447 -0.02723,0.57485 -0.264884,0.35706 -0.245021,0.36743 -0.225073,0.37702 -0.205027,0.38581 -0.184897,0.39383 -0.164671,0.40104 -0.144363,0.40748 -0.12396,0.41313 -0.103461,0.41797 -0.08288,0.42206 -0.0622,0.42532 -0.04144,0.42782 -0.02059,0.42953 3.62e-4,0.43044 0.0214,0.43058 0.04252,0.42991 -0.411841,0.0556 -0.408108,0.0748 -0.403693,0.0937 -0.398608,0.11248 -0.392845,0.13101 -0.386406,0.14933 -0.379292,0.16744 -0.371503,0.18533 -0.363038,0.203 -0.353895,0.22045 -0.344076,0.23768 -0.333585,0.25471 -0.322417,0.27152 -0.310572,0.2881 -0.298051,0.30448 -0.284854,0.32063 -0.550498,0.13919 -0.55164,0.13076 -0.552873,0.12164 -0.5542,0.1118 -0.555622,0.10129 -0.557136,0.0901 -0.558742,0.0781 -0.560447,0.0655 -0.562241,0.0522 -0.564127,0.0382 -0.566115,0.0235 -0.568187,0.008 -0.570358,-0.008 -0.57262,-0.0248 -0.574976,-0.0423 -0.577437,-0.0605 0.495959,0.30528 0.486469,0.31578 0.477304,0.32594 0.468458,0.33573 0.459928,0.34518 0.451721,0.35426 0.443827,0.36301 0.436263,0.37138 0.42901,0.37942 0.422079,0.38709 0.415469,0.3944 0.409179,0.40137 0.403203,0.40799 0.397553,0.41425 0.392219,0.42015 0.387204,0.4257 0.06518,0.43977 0.08655,0.43306 0.107436,0.42574 0.127825,0.4178 0.147721,0.40923 0.167125,0.40004 0.186036,0.39023 0.204454,0.37979 0.222379,0.36874 0.239811,0.35705 0.256749,0.34476 0.273194,0.33184 0.289147,0.31829 0.304604,0.30413 0.319572,0.28934 0.334046,0.27393 -0.251901,0.3305 -0.235696,0.34142 -0.219161,0.35171 -0.202309,0.36137 -0.185128,0.3704 -0.167616,0.37879 -0.149787,0.38658 -0.131633,0.3937 -0.113113,0.40023 -0.09435,0.40609 -0.07522,0.41135 -0.05577,0.41595 -0.03599,0.41994 -0.01588,0.42331 0.0045,0.42603 0.0253,0.42813 -0.290856,0.4877 -0.29763,0.48256 -0.304956,0.47697 -0.312848,0.47095 -0.321295,0.46451 -0.330305,0.45764 -0.339872,0.45035 -0.35,0.44263 -0.360686,0.43449 -0.371929,0.4259 -0.383739,0.41691 -0.396099,0.40748 -0.409026,0.39762 -0.42251,0.38735 -0.436552,0.37664 -0.451154,0.3655 -5e-6,2e-5 -5e-6,2e-5 -8e-6,3e-5 -6e-6,2e-5 -5e-6,2e-5 -5e-6,1e-5 -6e-6,2e-5 -8e-6,3e-5 -5e-6,2e-5 -6e-6,2e-5 -5e-6,2e-5 -5e-6,2e-5 -6e-6,2e-5 -8e-6,3e-5 -5e-6,2e-5 -5e-6,2e-5 0.566592,-0.13486 0.567311,-0.1207 0.568001,-0.10704 0.568674,-0.0939 0.56932,-0.0811 0.569942,-0.0689 0.570537,-0.0571 0.571115,-0.0459 0.571662,-0.035 0.572191,-0.0247 0.572691,-0.0149 0.573169,-0.005 0.573628,0.003 0.574055,0.0118 0.574462,0.0198 0.574845,0.0272 0.357363,0.2651 0.36776,0.24519 0.377366,0.2252 0.386186,0.20511 0.394215,0.18492 0.401433,0.16472 0.407894,0.1443 0.413463,0.12416 0.418381,0.10342 0.422463,0.0828 0.425732,0.0621 0.428216,0.0413 0.429919,0.0204 0.430837,-6.6e-4 0.430951,-0.0217 0.430276,-0.0429 0.05789,0.40736 0.07667,0.40359 0.09524,0.39919 0.113602,0.39411 0.131757,0.38839 0.149702,0.38199 0.167434,0.37496 0.184959,0.36727 0.202274,0.3589 0.21938,0.3499 0.236273,0.34024 0.252963,0.3299 0.26944,0.31892 0.285705,0.30729 0.301766,0.29499 0.317612,0.28205 0.139193,0.5505 0.13076,0.55164 0.121633,0.55287 0.111809,0.55419 0.101283,0.55562 0.09006,0.55714 0.07814,0.55875 0.06552,0.56044 0.05221,0.56224 0.03819,0.56413 0.02349,0.56611 0.0081,0.56819 -0.008,0.57036 -0.02484,0.57261 -0.04234,0.57499 -0.06054,0.57742 0.305282,-0.49596 0.315793,-0.48646 0.325952,-0.4773 0.335755,-0.46845 0.345204,-0.45992 0.354296,-0.45171 0.363035,-0.44383 0.371416,-0.43624 0.379447,-0.42901 0.387117,-0.42207 0.394439,-0.41546 0.401399,-0.40917 0.408008,-0.4032 0.414265,-0.39754 0.420156,-0.39222 0.425705,-0.3872 0.437016,-0.0647 0.430404,-0.0858 0.423168,-0.10643 0.415322,-0.12658 0.406886,-0.14624 0.397825,-0.16541 0.388144,-0.18411 0.377882,-0.20232 0.366987,-0.22004 0.355501,-0.23728 0.343382,-0.25403 0.330673,-0.27031 0.317352,-0.2861 0.303423,-0.30141 0.288878,-0.31622 0.27372,-0.33057 0.32996,0.25017 0.34078,0.23407 0.35097,0.21762 0.36054,0.2009 0.36951,0.18377 0.37782,0.16636 0.38551,0.14867 0.39258,0.1306 0.39914,0.11188 0.40484,0.0936 0.41003,0.0746 0.41461,0.0553 0.41857,0.0356 0.42189,0.0156 0.42457,-0.005 0.42665,-0.0252 0.48769,0.29085 0.48253,0.29761 0.47695,0.30494 0.47094,0.31282 0.46449,0.32127 0.45762,0.33028 0.45034,0.33985 0.44261,0.34997 0.43447,0.36066 0.4259,0.3719 0.41689,0.3837 0.40746,0.39607 0.39762,0.40899 0.38733,0.42249 0.37662,0.43652 0.3655,0.45112 -0.13483,-0.56655 -0.12068,-0.56729 -0.10704,-0.56798 -0.0939,-0.56865 -0.0811,-0.5693 -0.0689,-0.56993 -0.0571,-0.57053 -0.0459,-0.5711 -0.0351,-0.57165 -0.0247,-0.57218 -0.0149,-0.57268 -0.006,-0.57314 0.003,-0.57361 0.0118,-0.57404 0.0197,-0.57443 0.0272,-0.5748 0.26327,-0.35476 0.24367,-0.36501 0.22396,-0.37448 0.20418,-0.38318 0.18427,-0.39112 0.16435,-0.39824 0.14432,-0.40463 0.1243,-0.41021 0.10395,-0.41507 0.0836,-0.41914 0.0632,-0.42242 0.0427,-0.42496 0.0221,-0.4267 0.001,-0.42765 -0.0193,-0.42787 -0.0402,-0.42729 0.41023,-0.0564 0.40649,-0.0755 0.40206,-0.0943 0.39699,-0.11291 0.39124,-0.13132 0.38482,-0.14949 0.37772,-0.16748 0.36997,-0.18523 0.36155,-0.20278 0.35246,-0.2201 0.34268,-0.23721 0.33226,-0.25412 0.32116,-0.27079 0.30939,-0.28726 0.29695,-0.30351 0.28384,-0.31954 0.55049,-0.13919 0.55164,-0.13075 0.55287,-0.12162 0.55419,-0.11178 0.55561,-0.10126 0.55713,-0.09 0.55874,-0.0781 0.56043,-0.0655 0.56223,-0.0522 0.56413,-0.0382 0.56609,-0.0234 0.56819,-0.008 0.57035,0.008 0.57261,0.0248 0.57498,0.0423 0.57744,0.0605 -0.49596,-0.30528 -0.48646,-0.3158 -0.4773,-0.32595 -0.46845,-0.33575 -0.45992,-0.34521 -0.45172,-0.35429 -0.44382,-0.36304 -0.43625,-0.37141 -0.429,-0.37945 -0.42207,-0.38711 -0.41547,-0.39444 -0.40916,-0.40141 -0.40321,-0.408 -0.39754,-0.41427 -0.39222,-0.42015 -0.3872,-0.42571 -0.0646,-0.43668 -0.0857,-0.43007 -0.10632,-0.42285 -0.12643,-0.41503 -0.14606,-0.40659 -0.16521,-0.39756 -0.18389,-0.38789 -0.20206,-0.37765 -0.21975,-0.36678 -0.23698,-0.3553 -0.25372,-0.34323 -0.26996,-0.33054 -0.28572,-0.31723 -0.30102,-0.30333 -0.31582,-0.28883 -0.33014,-0.27369 0.25501,-0.33146 0.23864,-0.34258 0.22193,-0.35306 0.20489,-0.3629 0.1875,-0.3721 0.16984,-0.38064 0.15179,-0.38855 0.13348,-0.3958 0.11485,-0.4024 0.0957,-0.40842 0.0764,-0.41373 0.0567,-0.41843 0.0367,-0.42247 0.0164,-0.42589 -0.004,-0.42865 -0.0254,-0.43077 0.29084,-0.48769 0.29761,-0.48253 0.30494,-0.47695 0.31283,-0.47094 0.32126,-0.46449 0.33028,-0.45762 0.33985,-0.45034 0.34996,-0.44261 0.36066,-0.43447 0.3719,-0.4259 0.38371,-0.41689 0.39606,-0.40746 0.409,-0.39763 0.42248,-0.38733 0.43652,-0.37662 0.45112,-0.3655 -0.56655,0.13483 -0.56728,0.12068 -0.56797,0.10701 -0.56865,0.0938 -0.56929,0.0811 -0.56992,0.0689 -0.57052,0.0571 -0.5711,0.0458 -0.57164,0.035 -0.57217,0.0247 -0.57267,0.0149 -0.57314,0.005 -0.57361,-0.003 -0.57401,-0.0118 -0.57444,-0.0198 -0.5748,-0.0272 -0.35707,-0.26488 -0.36744,-0.24502 -0.37701,-0.22508 -0.38582,-0.20501 -0.39381,-0.18491 -0.40104,-0.16471 -0.40748,-0.1444 -0.41309,-0.12405 -0.41797,-0.10351 -0.42205,-0.0829 -0.42534,-0.0622 -0.42781,-0.0415 -0.42953,-0.0206 -0.43044,3.3e-4 -0.43057,0.0214 -0.4299,0.0425 -0.0556,-0.41185 -0.0748,-0.4081 -0.0937,-0.4037 -0.11248,-0.3986 -0.13101,-0.39285 -0.14934,-0.3864 -0.16743,-0.37929 -0.18532,-0.37151 -0.203,-0.36303 -0.22045,-0.3539 -0.23768,-0.34407 -0.25471,-0.33359 -0.27152,-0.32241 -0.2881,-0.31057 -0.30448,-0.29805 -0.32063,-0.28486 -0.13919,-0.55049 -0.13077,-0.55163 -0.12163,-0.55285 -0.11181,-0.55418 -0.10129,-0.5556 -0.0901,-0.55711 -0.0781,-0.55872 -0.0655,-0.5604 -0.0522,-0.56222 -0.0382,-0.5641 -0.0235,-0.56608 -0.008,-0.56817 0.008,-0.57034 0.0248,-0.5726 0.0423,-0.57497 0.0605,-0.57741 -1e-5,3e-5 0,3e-5 -1e-5,4e-5 -1e-5,3e-5 -10e-6,4e-5 -1e-5,3e-5 0,4e-5 -1e-5,3e-5 -1e-5,4e-5 -10e-6,3e-5 -1e-5,4e-5 0,2e-5 -1e-5,4e-5 -1e-5,3e-5 -1e-5,3e-5 z"
       id="path2" />
  </g>
</svg>
