<?xml version="1.0" encoding="UTF-8" standalone="no"?>
<!-- Created with Inkscape (http://www.inkscape.org/) -->

<svg
   width="210mm"
   height="297mm"
   viewBox="0 0 210 297"
   version="1.1"
   id="svg1196"
   sodipodi:docname="The_Met.svg"
   inkscape:version="1.1.2 (0a00cf5339, 2022-02-04)"
   xmlns:inkscape="http://www.inkscape.org/namespaces/inkscape"
   xmlns:sodipodi="http://sodipodi.sourceforge.net/DTD/sodipodi-0.dtd"
   xmlns="http://www.w3.org/2000/svg"
   xmlns:svg="http://www.w3.org/2000/svg">
  <sodipodi:namedview
     id="namedview1198"
     pagecolor="#ffffff"
     bordercolor="#666666"
     borderopacity="1.0"
     inkscape:pageshadow="2"
     inkscape:pageopacity="0.0"
     inkscape:pagecheckerboard="0"
     inkscape:document-units="mm"
     showgrid="false"
     inkscape:zoom="0.64052329"
     inkscape:cx="396.55076"
     inkscape:cy="561.25984"
     inkscape:window-width="1920"
     inkscape:window-height="1009"
     inkscape:window-x="0"
     inkscape:window-y="34"
     inkscape:window-maximized="1"
     inkscape:current-layer="layer1" />
  <defs
     id="defs1193" />
  <g
     inkscape:label="Layer 1"
     inkscape:groupmode="layer"
     id="layer1">
    <path
       id="path933"
       style="fill:none;stroke:#000000;stroke-width:0.148591;stroke-linecap:round"
       d="m 111.64141,64.621493 c -1.0913,-1.518 -2.9221,-2.322 -4.7784,-2.099 m 0,0 c -1.16,-1.487 -3.1672,-2.021 -4.9127,-1.307 m -9.989903,1.307 c -1.8564,-0.223 -3.6871,0.581 -4.7785,2.099 m 9.6911,-3.406 c -1.7454,-0.714 -3.7526,-0.18 -4.9126,1.307 m 9.989203,-1.307 c -1.4894,-1.171 -3.587203,-1.171 -5.076603,0 m -9.6911,3.406 c -9.0506,-1.371 -17.8448,3.706 -21.1825,12.23 m 79.054703,21.182 c 0.769,-1.704 0.55,-3.692 -0.572,-5.188 m 0,0 c 0.708,-1.748 0.167,-3.753 -1.324,-4.908 m -6.127,-7.998 c -0.7348,-1.719 -2.3467,-2.902 -4.2071,-3.088 m 7.7951,6.689 c -0.254,-1.868 -1.7204,-3.339 -3.588,-3.601 m 6.127,7.998 c 0.269,-1.876 -0.78,-3.692 -2.539,-4.397 m -7.7951,-6.689 c -3.3377,-8.524 -12.1319,-13.601 -21.1826,-12.23 m 21.1826,79.052997 c 1.8604,-0.186 3.4723,-1.369 4.2071,-3.088 m 0,0 c 1.8676,-0.262 3.334,-1.733 3.588,-3.601 m 3.863,-9.305 c 1.122,-1.496 1.341,-3.484 0.572,-5.188 m -1.896,10.096 c 1.491,-1.155 2.032,-3.16 1.324,-4.908 m -3.862,9.304 c 1.759,-0.704 2.808,-2.521 2.538,-4.396 m 1.896,-10.096 c 5.713,-7.152 5.713,-17.307 0,-24.458997 M 87.181907,155.90449 c 1.0914,1.518 2.9221,2.322 4.7785,2.099 m 0,0 c 1.16,1.487 3.1672,2.021 4.9126,1.307 m 9.990003,-1.307 c 1.8563,0.223 3.6871,-0.581 4.7784,-2.099 m -9.6911,3.406 c 1.7455,0.714 3.7527,0.18 4.9127,-1.307 m -9.989303,1.307 c 1.4895,1.171 3.587203,1.171 5.076603,0 m 9.6911,-3.406 c 9.0507,1.371 17.8449,-3.706 21.1826,-12.23 m -79.054403,-21.182 c -0.769,1.704 -0.5502,3.692 0.5713,5.188 m 0,0 c -0.7075,1.748 -0.1663,3.753 1.3246,4.908 m 6.1267,7.998 c 0.7349,1.719 2.3468,2.902 4.2072,3.088 m -7.7953,-6.689 c 0.2545,1.868 1.7205,3.339 3.5881,3.601 m -6.1265,-7.998 c -0.2698,1.876 0.7791,3.693 2.5384,4.397 m 7.7953,6.689 c 3.3376,8.524 12.1319,13.601 21.1825,12.23 m -21.1825,-79.052997 c -1.8604,0.186 -3.4723,1.369 -4.2072,3.088 m 0,0 c -1.8675,0.262 -3.3336,1.733 -3.5881,3.601 m -3.8632,9.305 c -1.1215,1.496 -1.3403,3.484 -0.5713,5.188 m 1.8959,-10.096 c -1.4909,1.155 -2.0321,3.16 -1.3246,4.908 m 3.8628,-9.304 c -1.7593,0.704 -2.8081,2.521 -2.5382,4.396 m -1.8959,10.096 c -5.71293,7.151997 -5.71293,17.306997 0,24.458997" />
  </g>
</svg>
