<?xml version="1.0" encoding="UTF-8" standalone="no"?>
<!-- Created with Inkscape (http://www.inkscape.org/) -->

<svg
   width="210mm"
   height="297mm"
   viewBox="0 0 210 297"
   version="1.1"
   id="svg1074"
   sodipodi:docname="Tudor_Rose.svg"
   inkscape:version="1.4.2 (1:1.4.2+202505120738+ebf0e940d0)"
   xmlns:inkscape="http://www.inkscape.org/namespaces/inkscape"
   xmlns:sodipodi="http://sodipodi.sourceforge.net/DTD/sodipodi-0.dtd"
   xmlns="http://www.w3.org/2000/svg"
   xmlns:svg="http://www.w3.org/2000/svg">
  <sodipodi:namedview
     id="namedview1076"
     pagecolor="#ffffff"
     bordercolor="#666666"
     borderopacity="1.0"
     inkscape:pageshadow="2"
     inkscape:pageopacity="0.0"
     inkscape:pagecheckerboard="0"
     inkscape:document-units="mm"
     showgrid="false"
     inkscape:zoom="2.5620932"
     inkscape:cx="250.18606"
     inkscape:cy="560.47922"
     inkscape:window-width="1920"
     inkscape:window-height="1016"
     inkscape:window-x="1920"
     inkscape:window-y="27"
     inkscape:window-maximized="1"
     inkscape:current-layer="layer1"
     inkscape:showpageshadow="0"
     inkscape:deskcolor="#d1d1d1" />
  <defs
     id="defs1071" />
  <g
     inkscape:label="Layer 1"
     inkscape:groupmode="layer"
     id="layer1">
    <path
       id="path955"
       style="fill:none;stroke:#00ff00;stroke-width:0.264583;stroke-linecap:round"
       d="M 79.7618 125.489 C 80.8558 124.593 81.9499 123.696 83.2466 123.365 C 83.8502 123.211 84.4977 123.18 85.1443 123.282 C 86.1935 123.448 87.2402 123.965 87.8467 124.764 C 88.4532 125.564 88.6194 126.646 88.7885 127.699 C 89.113 129.721 89.448 131.634 90.0609 133.48 C 90.6737 135.327 91.5645 137.106 92.4295 138.905 C 92.8799 139.842 93.3233 140.784 93.3927 141.833 C 93.4568 142.801 93.2025 143.86 92.5742 144.557 C 92.053 145.135 91.2744 145.463 90.4934 145.669 C 89.1425 146.024 87.7842 146.012 86.426 145.999 C 87.6165 146.763 88.807 147.526 89.5223 148.657 C 89.8553 149.184 90.0853 149.79 90.1881 150.436 C 90.3548 151.486 90.1866 152.641 89.6134 153.465 C 89.0403 154.289 88.0622 154.781 87.1132 155.267 C 85.2905 156.201 83.5747 157.11 82.0082 158.264 C 80.4417 159.417 79.0245 160.814 77.5808 162.193 C 76.829 162.911 76.0701 163.624 75.0938 164.014 C 74.193 164.374 73.1072 164.459 72.2505 164.077 C 71.5398 163.76 70.9867 163.121 70.5499 162.442 C 69.7944 161.267 69.3866 159.971 68.9788 158.676 C 68.6205 160.044 68.2622 161.412 67.4076 162.442 C 67.0098 162.921 66.5044 163.327 65.9213 163.625 C 64.9752 164.107 63.8244 164.304 62.8637 164.014 C 61.903 163.723 61.1323 162.945 60.3767 162.193 C 58.9257 160.748 57.5303 159.397 55.9493 158.264 C 54.3683 157.13 52.6016 156.214 50.8443 155.267 C 49.9293 154.774 49.0169 154.273 48.3441 153.465 C 47.7233 152.719 47.3065 151.713 47.4053 150.78 C 47.4873 150.006 47.9241 149.283 48.4352 148.657 C 49.3191 147.576 50.4253 146.788 51.5315 145.999 C 50.1196 146.081 48.7076 146.163 47.4641 145.669 C 46.8853 145.439 46.343 145.083 45.8798 144.621 C 45.1283 143.87 44.5854 142.837 44.5648 141.833 C 44.5442 140.83 45.0459 139.856 45.528 138.905 C 46.4538 137.079 47.3073 135.334 47.8966 133.48 C 48.486 131.626 48.8114 129.663 49.1691 127.699 C 49.3553 126.677 49.5503 125.654 50.1108 124.764 C 50.6279 123.944 51.4561 123.236 52.3739 123.042 C 53.1353 122.881 53.9583 123.073 54.7109 123.365 C 56.0128 123.872 57.1043 124.68 58.1957 125.489 C 57.6814 124.171 57.1671 122.854 57.2532 121.518 C 57.2932 120.897 57.4634 120.271 57.7603 119.688 C 58.2419 118.741 59.0571 117.905 60.0051 117.576 C 60.9531 117.246 62.0339 117.422 63.0874 117.587 C 65.1107 117.903 67.0335 118.176 68.9788 118.163 C 70.924 118.151 72.8918 117.854 74.8701 117.587 C 75.9002 117.448 76.9332 117.318 77.9524 117.576 C 78.8928 117.814 79.8214 118.383 80.2898 119.196 C 80.6784 119.87 80.7502 120.712 80.7043 121.518 C 80.625 122.913 80.1934 124.201 79.7618 125.489 Z" />
  </g>
</svg>
